<svg width="270" height="78" viewBox="0 0 270 78" fill="none" xmlns="http://www.w3.org/2000/svg">
<path d="M224.933 12.8185C215.948 11.4613 206.96 10.1037 197.947 8.85376C207.987 11.0378 218.086 13.743 227.582 17.1132C242.164 22.2887 255.359 29.0446 264.73 37.9193L264.741 37.9294L264.751 37.9401C266.273 39.5618 267.88 41.3014 268.735 43.2432L268.739 43.2503L268.741 43.2576C269.952 46.2571 269.479 49.4853 267.677 52.2278C265.04 56.2473 260.14 59.57 253.994 62.3336C247.834 65.103 240.357 67.3393 232.486 69.15C216.742 72.7716 199.353 74.7056 187.624 75.7767L187.613 75.6546L187.615 75.7777C179.798 76.3003 171.95 76.709 164.112 77.1037L164.102 77.1042L164.093 77.1043C161.278 77.1411 158.462 77.1842 155.646 77.2274C151.18 77.2958 146.712 77.3642 142.246 77.4075L142.246 77.4076L142.235 77.4075C129.545 77.2541 116.854 77.0183 104.165 76.3376C98.3799 76.1192 92.6075 75.6475 86.8482 75.1768C84.0834 74.9508 81.3216 74.7251 78.5629 74.5278L78.5492 74.5268L78.5356 74.5251C76.1157 74.2181 73.6863 73.9289 71.2542 73.6393C65.6696 72.9744 60.0709 72.3079 54.5408 71.421L54.5349 71.4199C39.3904 68.8035 22.9804 65.9503 11.1971 58.3236C2.83019 52.9158 -1.11175 44.5648 1.49173 36.9749C3.23509 31.8358 7.85942 27.4908 13.3328 24.0361C24.6397 16.8361 39.1767 12.4656 53.8422 9.1901C58.1397 8.08855 62.5822 7.24152 67.0014 6.39892C68.091 6.19117 69.1791 5.9837 70.2633 5.77275L70.2752 5.77044L70.2871 5.76871L84.5663 3.70043L84.5663 3.70027L84.5789 3.69877C115.182 0.0557138 146.762 0.521714 177.499 5.06963C193.018 6.76873 208.383 9.16332 223.723 11.5541C229.834 12.5066 235.942 13.4584 242.054 14.3655L241.909 15.3548C236.247 14.5276 230.591 13.6731 224.933 12.8185ZM150.842 4.22827C148.863 4.13267 146.881 4.03691 144.895 3.91896L132.89 3.68537C132.89 3.68536 132.889 3.68536 132.889 3.68535C129.468 3.64338 126.055 3.70522 122.633 3.76724C120.628 3.80357 118.62 3.83995 116.605 3.85559C115.138 3.92722 113.671 3.99444 112.206 4.06162C106.334 4.33078 100.477 4.59928 94.6686 5.1483L94.6629 5.14878C70.8376 7.12373 46.7507 10.7714 26.5613 19.3911C18.1844 23.0906 10.191 27.6847 6.0791 33.8212C2.31938 39.5043 3.09318 46.5343 8.10715 52.0574C12.4221 56.7815 19.637 60.1619 27.2188 62.4127C42.228 66.7642 58.3647 68.6751 74.366 70.4492L74.3696 70.4496C79.5829 71.0649 84.8262 71.4306 90.083 71.7972C92.991 72 95.9032 72.2031 98.8167 72.4489C101.799 72.5644 104.777 72.7017 107.753 72.8388C114.563 73.1526 121.36 73.4658 128.17 73.5169L128.175 73.517C132.803 73.5992 137.431 73.6786 142.06 73.755C145.507 73.716 148.957 73.6734 152.407 73.6308C156.21 73.5838 160.012 73.5369 163.811 73.4947C166.775 73.3191 169.739 73.1744 172.7 73.0299C178.619 72.741 184.525 72.4528 190.389 71.9188L190.421 71.9158L190.422 71.9159C200.983 70.8866 215.185 69.2456 228.454 66.4721C241.765 63.6899 254.035 59.7871 260.783 54.2887C264.379 51.3006 266.407 47.7399 265.268 44.031C264.722 42.5187 263.565 41.1171 262.323 39.665C261.379 38.6213 260.335 37.6162 259.198 36.6564C255.468 33.5575 251.462 30.6029 246.948 28.0297C231.491 19.4405 212.842 13.8373 193.894 9.78109C183.193 7.61972 172.139 5.62372 161.008 4.83041L161.003 4.83001C157.621 4.55576 154.236 4.39224 150.842 4.22827Z" fill="#FFE34F" stroke="#FFE34F"/>
</svg>
