<svg width="152" height="11" viewBox="0 0 152 11" fill="none" xmlns="http://www.w3.org/2000/svg">
<path d="M147.906 9.6599L147.838 9.655L147.773 9.63812C147.017 9.44324 146.273 9.30336 145.501 9.15837C145.138 9.09033 144.77 9.02116 144.392 8.94465L144.392 8.94467L144.387 8.94367C141.211 8.27966 138.049 7.90305 134.849 7.52196C133.257 7.33241 131.657 7.14176 130.04 6.91409C96.4739 4.2047 63.0498 5.75489 29.593 7.30659C20.7284 7.71773 11.8615 8.12897 2.98914 8.46111C2.10534 8.50693 1.63097 7.73819 1.4688 7.24021C1.29254 6.69897 1.26993 5.91636 1.73804 5.33912L1.88931 5.15258L2.12081 5.08861C3.86229 4.6074 5.68291 4.51891 7.44743 4.49438C7.8383 4.48895 8.22514 4.48658 8.60837 4.48424C9.98438 4.47583 11.3137 4.46771 12.6145 4.31881L12.6438 4.31545L12.6733 4.31441C20.9287 4.02316 29.1914 3.64925 37.4612 3.27503C69.7201 1.81524 102.086 0.350605 134.538 3.76819L134.538 3.76813L134.547 3.76924C138.801 4.27198 143.071 4.85384 147.335 5.77438L147.412 5.79093L147.483 5.82301C147.613 5.88082 147.839 5.92365 148.234 5.9823C148.257 5.98571 148.28 5.98916 148.304 5.99269C148.638 6.04203 149.062 6.10459 149.447 6.22823C149.861 6.3612 150.351 6.60087 150.661 7.09187C150.981 7.59917 151.011 8.2159 150.842 8.88676L150.825 8.95484L150.796 9.01855C150.62 9.39853 150.351 9.6973 149.976 9.855C149.622 10.0036 149.271 9.98425 149.01 9.94031C148.784 9.90224 148.554 9.83139 148.381 9.77843C148.359 9.77163 148.338 9.76512 148.318 9.75902C148.11 9.69579 147.99 9.66605 147.906 9.6599Z" fill="#C9B2FF" stroke="#C9B2FF" stroke-width="1.5"/>
</svg>
