<svg width="166" height="46" viewBox="0 0 166 46" fill="none" xmlns="http://www.w3.org/2000/svg">
<path d="M50.8304 2.31806C69.3126 0.212233 88.5212 0.447171 107.351 3.00905C116.835 3.96207 126.249 5.31163 135.644 6.65839C139.386 7.19481 143.125 7.73079 146.864 8.24109L146.779 9.23248C143.312 8.76659 139.848 8.28531 136.383 7.804C132.624 7.28176 128.865 6.7595 125.101 6.2568C129.545 7.27053 133.959 8.45036 138.195 9.82718C147.23 12.7637 155.491 16.6081 161.5 21.6783L161.512 21.6879L161.523 21.6982C162.494 22.614 163.557 23.6289 164.161 24.7745L164.164 24.7818L164.168 24.7893C165.041 26.5794 164.844 28.5037 163.803 30.1223C162.299 32.4645 159.388 34.3794 155.737 35.9624C152.072 37.5518 147.591 38.8355 142.864 39.8754C133.408 41.9556 122.901 43.0745 115.81 43.696L115.792 43.5618L115.801 43.6969C111.069 44.0022 106.314 44.2426 101.566 44.4749L101.557 44.4753L101.549 44.4755C99.8412 44.4991 98.1324 44.5264 96.423 44.5537C93.7125 44.597 91.0005 44.6403 88.289 44.6692L88.2891 44.6693L88.2789 44.6692C80.5666 44.5942 72.8485 44.4721 65.1165 44.0966C61.5928 43.9777 58.0658 43.7142 54.5509 43.4516C52.8652 43.3257 51.1823 43.1999 49.5039 43.0904L49.4911 43.0896L49.4783 43.0881C48.0013 42.9159 46.5179 42.7537 45.0321 42.5913C41.6171 42.2178 38.1897 41.8431 34.7987 41.3428L34.7931 41.3419C25.5209 39.8682 15.4227 38.2558 7.98031 33.9016C2.68553 30.808 -0.0895319 25.9609 1.29065 21.487C2.20565 18.4827 4.92668 15.9718 8.14763 13.9937C14.8079 9.86605 23.5187 7.35844 32.3215 5.4783C34.9007 4.84575 37.577 4.35805 40.2333 3.874C40.8877 3.75476 41.5409 3.63573 42.1911 3.51481L42.2022 3.51276L42.2133 3.51122L50.8187 2.31953L50.8187 2.31939L50.8304 2.31806ZM150.191 16.4269C140.548 11.5623 129.059 8.39341 117.426 6.10303C110.859 4.88283 104.089 3.75852 97.3137 3.31822L97.3092 3.31788C95.2483 3.16512 93.1926 3.07551 91.1282 2.98553C89.9236 2.93302 88.7162 2.88039 87.503 2.81501L80.209 2.69364C80.2084 2.69364 80.2079 2.69363 80.2073 2.69363C78.1308 2.67306 76.0652 2.7115 73.9906 2.7501C72.7747 2.77272 71.5559 2.79539 70.3299 2.80629C69.4413 2.84849 68.5532 2.88818 67.666 2.92783C64.1088 3.08678 60.5651 3.24513 57.0596 3.56302L57.0543 3.56345C42.6523 4.71086 28.164 6.80991 16.2081 11.7273C11.2393 13.8428 6.58407 16.4491 4.32129 19.8933C2.29042 23.0286 2.94748 26.9085 6.10902 29.9879C8.84365 32.6358 13.2947 34.5435 17.9651 35.816C27.2063 38.2754 37.0552 39.3469 46.8328 40.342L46.8361 40.3423C50.0191 40.6874 53.208 40.89 56.4097 41.0935C58.1822 41.2062 59.9586 41.3191 61.7401 41.4566C63.5565 41.5195 65.3699 41.5948 67.1813 41.67C71.3259 41.8421 75.4596 42.0137 79.5935 42.0361L79.5983 42.0362C82.4113 42.0786 85.2242 42.1193 88.037 42.1583C90.1279 42.1328 92.2213 42.1052 94.3149 42.0776C96.6219 42.0472 98.9291 42.0168 101.233 41.9892C103.03 41.8861 104.826 41.8009 106.619 41.7157C110.202 41.5456 113.774 41.3761 117.315 41.0666L117.345 41.0639L117.345 41.0639C123.723 40.4677 132.283 39.5202 140.238 37.9306C144.223 37.1345 148.047 36.179 151.364 35.0294C154.686 33.878 157.471 32.5419 159.401 30.9974C161.473 29.3044 162.486 27.3685 161.735 25.4075C161.374 24.5948 160.66 23.829 159.854 22.9993C159.255 22.4136 158.596 21.849 157.882 21.3093C155.523 19.5532 153.004 17.8813 150.191 16.4269Z" fill="#87CFFF" stroke="#87CFFF"/>
</svg>
