<svg width="271" height="78" viewBox="0 0 271 78" fill="none" xmlns="http://www.w3.org/2000/svg">
<path d="M225.574 12.2101C216.589 10.8529 207.601 9.49528 198.589 8.24536C208.629 10.4294 218.728 13.1346 228.223 16.5048C242.806 21.6803 256.001 28.4362 265.371 37.3109L265.382 37.321L265.392 37.3317C266.915 38.9534 268.522 40.693 269.377 42.6348L269.38 42.6419L269.383 42.6492C270.593 45.6485 270.121 48.8767 268.318 51.619C265.681 55.6387 260.782 58.9615 254.635 61.7252C248.475 64.4946 240.998 66.7309 233.127 68.5416C217.383 72.1632 199.994 74.0972 188.266 75.1683L188.255 75.0462L188.256 75.1693C180.44 75.6919 172.592 76.1006 164.753 76.4953L164.744 76.4958L164.734 76.4959C161.92 76.5327 159.104 76.5758 156.287 76.619C151.821 76.6874 147.354 76.7558 142.887 76.7991L142.887 76.7992L142.877 76.7991C130.187 76.6457 117.495 76.4099 104.806 75.7292C99.0213 75.5108 93.2488 75.0391 87.4895 74.5684C84.7247 74.3424 81.963 74.1167 79.2043 73.9194L79.1907 73.9184L79.1771 73.9167C76.7572 73.6097 74.3278 73.3205 71.8956 73.0309C66.3111 72.366 60.7124 71.6995 55.1823 70.8126L55.1763 70.8115C40.0319 68.1951 23.6219 65.3419 11.8385 57.7152C3.4717 52.3074 -0.470275 43.9564 2.13321 36.3665C3.87657 31.2274 8.5009 26.8824 13.9743 23.4277C25.2812 16.2277 39.8182 11.8572 54.4836 8.5817C58.7812 7.48015 63.2237 6.63311 67.6429 5.79051C68.7325 5.58277 69.8206 5.3753 70.9048 5.16435L70.9167 5.16204L70.9286 5.16031L85.2078 3.09203L85.2078 3.09187L85.2204 3.09037C115.823 -0.552684 147.403 -0.0866846 178.141 4.46123C193.659 6.16033 209.024 8.55492 224.364 10.9457C230.476 11.8982 236.584 12.85 242.695 13.7571L242.55 14.7464C236.889 13.9192 231.232 13.0647 225.574 12.2101ZM151.483 3.61987C149.505 3.52427 147.522 3.42851 145.536 3.31057L133.532 3.07697C133.531 3.07697 133.531 3.07696 133.53 3.07695C130.11 3.03498 126.697 3.09682 123.274 3.15885C121.269 3.19517 119.261 3.23156 117.246 3.24719C115.779 3.31882 114.313 3.38604 112.847 3.45322C106.976 3.72238 101.118 3.99088 95.3101 4.5399L95.3044 4.54038C71.4791 6.51533 47.3922 10.163 27.2028 18.7827C18.8259 22.4822 10.8325 27.0763 6.72058 33.2128C2.96086 38.8959 3.73466 45.9259 8.74863 51.449C13.0636 56.1731 20.2785 59.5535 27.8603 61.8043C42.8695 66.1558 59.0062 68.0667 75.0075 69.8408L75.011 69.8412C80.2244 70.4565 85.4677 70.8222 90.7245 71.1888C93.6325 71.3916 96.5446 71.5947 99.4582 71.8405C102.44 71.956 105.418 72.0933 108.394 72.2304C115.204 72.5442 122.002 72.8574 128.811 72.9085L128.816 72.9086C133.444 72.9908 138.073 73.0702 142.701 73.1466C146.148 73.1076 149.598 73.065 153.048 73.0224C156.851 72.9754 160.654 72.9285 164.452 72.8863C167.416 72.7107 170.38 72.566 173.342 72.4215C179.26 72.1326 185.166 71.8444 191.03 71.3104L191.063 71.3074L191.064 71.3075C201.624 70.2782 215.826 68.6372 229.096 65.8637C242.406 63.0815 254.676 59.1787 261.425 53.6803C265.021 50.6922 267.048 47.1316 265.91 43.4226C265.364 41.9103 264.207 40.5087 262.964 39.0566C262.021 38.0129 260.977 37.0078 259.839 36.048C256.109 32.9491 252.104 29.9945 247.589 27.4213C232.132 18.8321 213.484 13.2289 194.536 9.17269C183.835 7.01132 172.781 5.01532 161.649 4.22201L161.644 4.22162C158.262 3.94736 154.877 3.78384 151.483 3.61987Z" fill="#2AD884" stroke="#2AD884"/>
</svg>
