<svg width="24" height="23" viewBox="0 0 24 23" fill="none" xmlns="http://www.w3.org/2000/svg">
<path d="M8.57071 13.3917C10.3558 13.0194 11.8989 11.9498 13.3789 10.8186C12.0535 10.6673 10.6876 10.7131 9.3627 10.9162C9.15982 10.9583 8.93884 10.994 8.71713 11.0297C8.64908 11.0407 8.58096 11.0517 8.51327 11.0629C8.21798 11.1117 7.92379 11.1654 7.64526 11.2415C7.08756 11.3938 6.63465 11.6248 6.37445 12.0354C6.18858 12.4095 6.3687 12.9248 6.74222 13.1785C7.2527 13.4998 7.91607 13.497 8.57071 13.3917ZM14.3681 10.0345C16.9906 7.89044 19.2515 5.34094 21.0661 2.48376L14.6046 5.12319C14.5171 5.15548 14.4267 5.18232 14.3453 5.2065L14.3416 5.20758L14.3399 5.2081C14.0666 5.28699 13.8637 5.10651 13.7944 4.92892C13.7256 4.75261 13.7512 4.48297 14.0026 4.35429L14.0025 4.35412L14.0114 4.34997C14.2841 4.22369 14.5586 4.10403 14.8309 3.9858L14.8861 3.96186C15.1405 3.85143 15.3927 3.74195 15.6435 3.62756L15.6456 3.62661C16.126 3.41293 16.6065 3.19735 17.0874 2.98158C17.9439 2.59734 18.8017 2.21246 19.6631 1.83651L19.663 1.83616L19.6759 1.83134C19.8403 1.77018 20.0068 1.69708 20.1818 1.61948L20.2148 1.60485C20.3777 1.5326 20.5479 1.45711 20.7204 1.38995C21.0727 1.25277 21.4572 1.14094 21.8661 1.15384C21.9704 1.11391 22.0775 1.06622 22.1893 1.01644C22.2366 0.995396 22.2847 0.973982 22.3338 0.95262C22.5004 0.880129 22.6936 0.800944 22.8607 0.781483C22.9463 0.771504 23.0571 0.772831 23.1614 0.826792C23.2773 0.886742 23.3458 0.990623 23.375 1.10675C23.4017 1.21343 23.3966 1.33252 23.3763 1.45425C23.3562 1.57534 23.3179 1.71658 23.262 1.87983C23.1246 2.52995 23.0357 3.18665 22.9455 3.85379C22.9205 4.03838 22.8955 4.22376 22.8692 4.41002C22.8536 4.52473 22.838 4.63963 22.8225 4.75468C22.7248 5.47697 22.6263 6.20524 22.4982 6.92955L22.4944 6.95087L22.487 6.97123C22.4754 7.00318 22.4636 7.07165 22.4466 7.19281C22.4452 7.20267 22.4438 7.21277 22.4424 7.2231C22.4282 7.32507 22.411 7.44809 22.3852 7.56278C22.3581 7.6835 22.3141 7.83126 22.2277 7.94551C22.1818 8.00626 22.1176 8.06593 22.0301 8.10186C21.9403 8.13868 21.8455 8.14251 21.7539 8.12173L21.7433 8.11933L21.7329 8.116C21.6189 8.07949 21.5212 8.00963 21.4634 7.9004C21.4097 7.79921 21.407 7.69504 21.4139 7.61931C21.4208 7.54314 21.4401 7.46914 21.455 7.41483C21.4589 7.40056 21.4625 7.3877 21.4658 7.37597C21.477 7.33561 21.4846 7.30858 21.4892 7.28355L21.4891 7.28354L21.4905 7.27702C21.5775 6.8655 21.6459 6.45241 21.7083 6.03363L21.7083 6.03363L21.7088 6.03076C21.7946 5.49786 21.8653 4.9529 21.9366 4.40355C22.0238 3.73178 22.1118 3.05347 22.2293 2.38268C22.1911 2.45538 22.1501 2.52499 22.1085 2.59168C22.0464 2.69118 21.9797 2.78894 21.9167 2.88131C21.9063 2.89662 21.8959 2.91179 21.8857 2.92679C21.8124 3.03454 21.7451 3.13545 21.687 3.23606L21.6829 3.24317L21.6783 3.25C21.3584 3.72821 21.0329 4.21004 20.6866 4.67532C19.1727 6.74225 17.4415 8.65432 15.48 10.3105C16.8502 10.7874 18.0666 11.9105 17.8814 13.5758L17.8815 13.5758L17.8806 13.5824C17.6852 14.9957 16.9233 16.2469 15.9478 17.3074C14.9715 18.3687 13.7681 19.2537 12.6602 19.9363L12.6603 19.9365L12.6521 19.9412C9.63512 21.6457 5.52472 22.6708 2.11301 21.4654L2.11292 21.4657L2.10206 21.4612C1.13379 21.0672 0.128122 20.1191 0.316384 18.8762C0.334446 18.7369 0.4087 18.6247 0.516185 18.5566C0.618228 18.492 0.735676 18.4756 0.838338 18.4899C0.940951 18.5042 1.05021 18.5522 1.13067 18.6439C1.21529 18.7404 1.25343 18.8694 1.23123 19.0073C1.21707 19.1172 1.21748 19.2284 1.23245 19.3382C1.40808 19.9317 1.84148 20.3437 2.46115 20.6184C3.09189 20.8979 3.89952 21.0263 4.76773 21.0484C6.50367 21.0925 8.40387 20.71 9.4185 20.3697L9.41849 20.3696L9.42144 20.3687C12.0709 19.5162 14.5049 17.8716 16.1071 15.5932C16.8796 14.48 17.1142 13.463 16.8677 12.6818C16.632 11.935 15.9269 11.3163 14.6071 11.0236C14.6056 11.0249 14.604 11.0261 14.6024 11.0273C12.765 12.4721 10.6915 14.1024 8.20035 14.3651L8.20037 14.3652L8.19133 14.3659C7.44594 14.4172 6.53763 14.3121 5.92914 13.6908C5.38498 13.1395 5.17355 12.2046 5.61951 11.4915L5.61924 11.4913L5.6265 11.4809C6.07053 10.8449 6.72948 10.5345 7.40532 10.3496C7.74347 10.2571 8.09306 10.1942 8.42984 10.1391C8.51472 10.1252 8.59842 10.1119 8.68095 10.0987C8.93018 10.0591 9.16876 10.0211 9.3969 9.97472L9.40501 9.97307L9.41321 9.97197C11.0466 9.75133 12.7307 9.72881 14.3681 10.0345Z" fill="#FF9067" stroke="#FF9067" stroke-width="0.5"/>
</svg>
