<svg width="364" height="80" viewBox="0 0 364 80" fill="none" xmlns="http://www.w3.org/2000/svg">
<path d="M301.986 10.9036C289.614 9.63161 277.237 8.35901 264.828 7.20422C278.611 9.30247 292.504 11.9502 305.584 15.3136C325.39 20.4066 343.369 27.1499 356.277 36.1381L356.288 36.146L356.299 36.1546C358.404 37.8015 360.623 39.5643 361.841 41.553L361.846 41.5607L361.85 41.5685C363.606 44.6807 363.065 48.0662 360.728 50.9346C357.327 55.118 350.871 58.6181 342.711 61.568C334.53 64.5254 324.554 66.9581 314.022 68.9598C292.958 72.9637 269.616 75.2547 253.857 76.5595L253.848 76.4623L253.851 76.5603C243.341 77.2323 232.785 77.7874 222.239 78.3279L222.232 78.3283L222.225 78.3284C218.433 78.4142 214.64 78.5065 210.846 78.5989C204.833 78.7452 198.819 78.8915 192.805 79.012L192.796 79.012C175.696 79.0687 158.594 79.0403 141.482 78.5526C133.687 78.4252 125.904 78.0363 118.132 77.648C114.397 77.4614 110.666 77.2749 106.936 77.1176L106.925 77.1172L106.915 77.1163C103.639 76.8398 100.353 76.5821 97.0655 76.3242C89.5217 75.7324 81.9656 75.1396 74.4905 74.3179L74.4859 74.3174C53.9789 71.8703 31.8321 69.2059 15.7422 61.5531C10.0374 58.8435 5.78977 55.3633 3.36444 51.5579C0.931651 47.7408 0.333621 43.5905 1.96291 39.6263C4.13598 34.2757 10.209 29.7219 17.4317 26.0761C32.3798 18.4644 51.7777 13.7104 71.4118 10.0804C77.1549 8.87131 83.1007 7.92262 89.0253 6.97733C90.4869 6.74414 91.9471 6.51115 93.4027 6.27451L93.412 6.273L93.4213 6.27184L112.585 3.8936L112.585 3.8935L112.595 3.89248C153.671 -0.386503 196.207 -0.440381 237.751 3.73372C258.712 5.225 279.486 7.43682 300.235 9.6459C308.503 10.5262 316.767 11.4061 325.037 12.2397L324.938 13.2348C317.285 12.4766 309.637 11.6902 301.986 10.9036ZM201.831 3.28494C199.16 3.21972 196.488 3.15443 193.813 3.06643C193.81 3.06634 193.808 3.06626 193.805 3.06618L177.625 3.02866C177.625 3.02866 177.624 3.02866 177.624 3.02867C173.011 3.0433 168.406 3.16525 163.793 3.28743C161.092 3.35895 158.389 3.43054 155.68 3.48073C153.706 3.57959 151.732 3.6739 149.759 3.76819C141.858 4.14575 133.968 4.52277 126.155 5.18891L126.15 5.18925C94.1134 7.63366 61.7561 11.8122 34.8208 21.0707C29.2511 23.0492 23.7939 25.2638 19.0573 27.7937C14.3154 30.3264 10.327 33.1589 7.66741 36.3598C5.22576 39.3374 4.35783 42.6073 4.93262 45.8151C5.50953 49.0345 7.55172 52.2547 11.0514 55.0851C17.0625 59.9173 26.9471 63.2989 37.2621 65.4998C57.6618 69.7456 79.492 71.447 101.109 73.0079L101.112 73.0081C108.162 73.5558 115.252 73.8451 122.352 74.1349C126.278 74.2951 130.206 74.4555 134.132 74.6596C138.151 74.7283 142.168 74.8195 146.182 74.9107C155.37 75.1194 164.548 75.3279 173.728 75.2652L173.732 75.2652C179.972 75.2717 186.211 75.2751 192.451 75.2756C197.098 75.1768 201.748 75.0742 206.397 74.9717C211.518 74.8587 216.638 74.7458 221.755 74.6378C225.737 74.4064 229.724 74.2067 233.709 74.0072C241.676 73.6084 249.633 73.21 257.52 72.5585L257.545 72.5565L257.548 72.5565C271.743 71.3143 290.84 69.3772 308.642 66.2837C317.548 64.7359 326.123 62.9001 333.593 60.7195C341.069 58.5373 347.408 56.0185 351.865 53.1169C354.239 51.5404 356.089 49.8134 357.127 48.0136C358.152 46.2373 358.385 44.3992 357.562 42.5126C356.774 40.9625 355.163 39.5302 353.434 38.0478C352.121 36.982 350.674 35.9575 349.102 34.9813C343.962 31.8404 338.452 28.8505 332.264 26.2628C311.108 17.6405 285.758 12.1643 260.076 8.29416C245.582 6.24283 230.604 4.36641 215.561 3.73493L215.557 3.73475C210.988 3.50864 206.413 3.39688 201.831 3.28494Z" fill="#87CFFF" stroke="#87CFFF"/>
</svg>
