<svg width="229" height="51" viewBox="0 0 229 51" fill="none" xmlns="http://www.w3.org/2000/svg">
<path d="M19.5544 39.9267C30.3539 39.9267 39.1087 31.1739 39.1087 20.3767C39.1087 9.5795 30.3539 0.82666 19.5544 0.82666C8.75479 0.82666 0 9.5795 0 20.3767C0 31.1739 8.75479 39.9267 19.5544 39.9267Z" fill="#2AD884"/>
<path d="M75.0091 33.5265C74.7878 34.6754 74.4333 35.7161 73.9505 36.6412C73.4652 37.5688 72.8567 38.3657 72.12 39.0318C71.3833 39.698 70.5309 40.2108 69.5629 40.5753C68.5949 40.9373 67.5237 41.1208 66.3545 41.1208C65.0445 41.1208 63.8175 40.8996 62.6785 40.4547C61.5395 40.0122 60.5564 39.3461 59.7291 38.4587C58.9019 37.5713 58.2507 36.4778 57.778 35.1756C57.3028 33.876 57.0664 32.3576 57.0664 30.6231C57.0664 28.8885 57.2826 27.4004 57.7176 26.0404C58.1501 24.6779 58.7712 23.5291 59.5783 22.5914C60.3854 21.6537 61.3685 20.9323 62.5276 20.4295C63.6868 19.9267 64.9817 19.6729 66.4149 19.6729C67.6645 19.6729 68.801 19.8589 69.8194 20.2334C70.8377 20.608 71.7152 21.1208 72.4519 21.7769C73.1886 22.433 73.772 23.2048 74.207 24.0922C74.6394 24.9795 74.9085 25.9273 75.0091 26.9353H70.8025C70.5209 25.7865 69.9753 24.8941 69.1681 24.2581C68.361 23.6221 67.4533 23.3053 66.4451 23.3053C64.69 23.3053 63.3976 23.9363 62.5729 25.1957C61.7457 26.4552 61.3333 28.1847 61.3333 30.3843C61.3333 32.5839 61.7406 34.3611 62.5578 35.603C63.375 36.8423 64.5995 37.4632 66.2339 37.4632C67.4835 37.4632 68.4867 37.1263 69.2436 36.4501C70.0004 35.7739 70.5184 34.8011 70.8025 33.5316H75.0091V33.5265Z" fill="#1D1D1C"/>
<path d="M83.2687 40.8163C82.0593 40.8163 80.9781 40.6252 80.0302 40.2406C79.0822 39.8585 78.2801 39.3231 77.6239 38.6368C76.9676 37.9505 76.4698 37.1235 76.1253 36.1556C75.7834 35.1878 75.6099 34.1295 75.6099 32.9807C75.6099 31.8319 75.7859 30.7434 76.1404 29.773C76.4924 28.8052 77.0028 27.9782 77.6691 27.2919C78.3355 26.6056 79.1375 26.0777 80.0754 25.7032C81.0133 25.3311 82.0769 25.1426 83.2662 25.1426C84.4555 25.1426 85.4838 25.3286 86.4142 25.7032C87.342 26.0777 88.134 26.6006 88.7903 27.2768C89.4465 27.953 89.9494 28.7751 90.3039 29.7429C90.6559 30.7107 90.8345 31.7891 90.8345 32.9807C90.8345 34.1722 90.6585 35.2456 90.3039 36.2034C89.9494 37.1612 89.4465 37.9832 88.7903 38.6695C88.134 39.3557 87.3395 39.8837 86.3991 40.2582C85.4612 40.6303 84.4178 40.8188 83.2687 40.8188V40.8163ZM83.2687 37.5181C85.6699 37.5181 86.8693 36.0048 86.8693 32.9807C86.8693 29.9566 85.6699 28.4734 83.2687 28.4734C80.8674 28.4734 79.6681 29.9767 79.6681 32.9807C79.6681 35.9847 80.8674 37.5181 83.2687 37.5181Z" fill="#1D1D1C"/>
<path d="M109.713 40.4241V31.4095C109.713 30.5021 109.501 29.7655 109.076 29.2024C108.654 28.6393 108.088 28.3552 107.382 28.3552C106.675 28.3552 106.054 28.6569 105.581 29.2627C105.106 29.8686 104.87 30.6227 104.87 31.5302V40.4241H100.937V31.4699C100.937 30.864 100.897 30.3713 100.817 29.9867C100.736 29.6046 100.6 29.3004 100.409 29.0792C100.218 28.858 99.9719 28.7022 99.6677 28.6091C99.3659 28.5186 99.0013 28.4734 98.5789 28.4734C96.9848 28.4734 96.1877 29.4412 96.1877 31.3769V40.4216H92.2552V25.5398H95.9464V27.7167C96.4492 26.7288 97.0552 26.0526 97.7617 25.6906C98.4683 25.3286 99.3156 25.1451 100.304 25.1451C100.807 25.1451 101.257 25.1853 101.649 25.2658C102.044 25.3462 102.396 25.4819 102.708 25.673C103.019 25.864 103.319 26.1104 103.6 26.4146C103.882 26.7162 104.163 27.0807 104.447 27.5031C104.85 26.676 105.385 26.0777 106.052 25.7032C106.718 25.3311 107.523 25.1426 108.473 25.1426C109.22 25.1426 109.906 25.2683 110.53 25.5197C111.156 25.771 111.689 26.1255 112.134 26.578C112.577 27.033 112.926 27.5609 113.177 28.1667C113.429 28.7725 113.555 29.4186 113.555 30.1024V40.4166H109.713V40.4241Z" fill="#1D1D1C"/>
<path d="M115.068 47.4732V25.5425H118.85L118.88 27.3575C119.788 25.8844 121.168 25.1504 123.024 25.1504C123.952 25.1504 124.814 25.3314 125.611 25.6959C126.408 26.0579 127.09 26.5833 127.653 27.2695C128.216 27.9558 128.661 28.7929 128.983 29.7809C129.305 30.7688 129.466 31.8874 129.466 33.1393C129.466 34.268 129.33 35.3012 129.058 36.2389C128.787 37.1765 128.387 37.9885 127.864 38.6748C127.339 39.361 126.7 39.889 125.943 40.2635C125.186 40.6356 124.324 40.8241 123.356 40.8241C121.52 40.8241 120.047 40.0473 118.938 38.4938V47.4782H115.066L115.068 47.4732ZM122.088 37.4606C124.346 37.4606 125.478 35.9272 125.478 32.8628C125.478 31.533 125.166 30.447 124.54 29.6099C123.914 28.7728 123.107 28.3555 122.119 28.3555C121.13 28.3555 120.379 28.7477 119.743 29.5345C119.106 30.3213 118.79 31.3495 118.79 32.619C118.79 35.8467 119.888 37.4581 122.088 37.4581V37.4606Z" fill="#1D1D1C"/>
<path d="M155.133 40.4243C155.012 40.0422 154.932 39.5973 154.891 39.0945C154.426 39.6199 153.813 40.0372 153.046 40.3489C152.279 40.6606 151.391 40.819 150.383 40.819C148.668 40.819 147.414 40.4419 146.617 39.6853C145.82 38.9286 145.422 37.9457 145.422 36.7365C145.422 35.6682 145.593 34.816 145.938 34.18C146.28 33.544 146.755 33.0462 147.361 32.6817C147.967 32.3198 148.686 32.0508 149.523 31.8798C150.36 31.7089 151.273 31.553 152.261 31.4097C153.25 31.269 153.916 31.0829 154.258 30.8492C154.6 30.6179 154.773 30.2383 154.773 29.7154C154.773 29.2303 154.547 28.8532 154.092 28.5817C153.637 28.3102 153.028 28.1745 152.261 28.1745C151.354 28.1745 150.702 28.3756 150.31 28.7803C149.915 29.185 149.669 29.7179 149.568 30.3841H145.908C145.928 29.6174 146.053 28.911 146.285 28.2675C146.516 27.6214 146.891 27.0684 147.404 26.6033C147.919 26.1383 148.588 25.7813 149.415 25.5299C150.242 25.2785 151.251 25.1528 152.44 25.1528C153.629 25.1528 154.602 25.2836 155.419 25.545C156.237 25.8064 156.89 26.186 157.386 26.6787C157.881 27.1739 158.238 27.7873 158.459 28.5239C158.681 29.2604 158.791 30.0925 158.791 31.0201V40.4268H155.13L155.133 40.4243ZM154.861 33.1342C154.66 33.3353 154.366 33.4962 153.984 33.6194C153.602 33.7401 153.046 33.8708 152.319 34.0116C151.19 34.2328 150.413 34.5168 149.988 34.8587C149.566 35.2031 149.352 35.6958 149.352 36.3419C149.352 37.4505 149.988 38.006 151.258 38.006C151.761 38.006 152.231 37.9206 152.664 37.7496C153.099 37.5787 153.471 37.3474 153.783 37.0533C154.094 36.7617 154.348 36.4173 154.539 36.0251C154.73 35.633 154.826 35.2132 154.826 34.7707L154.856 33.1367L154.861 33.1342Z" fill="#1D1D1C"/>
<path d="M171.622 40.4243L169.263 31.7743L166.902 40.4243H162.879L158.643 25.5425H162.789L165.21 35.1L167.267 25.5425H171.26L173.591 35.1L175.859 25.5425H179.914L175.647 40.4243H171.624H171.622Z" fill="#1D1D1C"/>
<path d="M189.049 40.4243C188.928 40.0422 188.848 39.5973 188.808 39.0945C188.342 39.6199 187.729 40.0372 186.962 40.3489C186.195 40.6606 185.308 40.819 184.299 40.819C182.584 40.819 181.33 40.4419 180.533 39.6853C179.736 38.9286 179.338 37.9457 179.338 36.7365C179.338 35.6682 179.509 34.816 179.854 34.18C180.196 33.544 180.671 33.0462 181.277 32.6817C181.883 32.3198 182.602 32.0508 183.439 31.8798C184.277 31.7089 185.189 31.553 186.178 31.4097C187.166 31.269 187.832 31.0829 188.174 30.8492C188.516 30.6179 188.689 30.2383 188.689 29.7154C188.689 29.2303 188.463 28.8532 188.008 28.5817C187.553 28.3102 186.944 28.1745 186.178 28.1745C185.27 28.1745 184.619 28.3756 184.226 28.7803C183.832 29.185 183.585 29.7179 183.485 30.3841H179.824C179.844 29.6174 179.969 28.911 180.201 28.2675C180.432 27.6214 180.807 27.0684 181.32 26.6033C181.835 26.1383 182.504 25.7813 183.331 25.5299C184.158 25.2785 185.167 25.1528 186.356 25.1528C187.545 25.1528 188.518 25.2836 189.336 25.545C190.153 25.8064 190.806 26.186 191.302 26.6787C191.797 27.1739 192.154 27.7873 192.375 28.5239C192.597 29.2604 192.707 30.0925 192.707 31.0201V40.4268H189.046L189.049 40.4243ZM188.777 33.1342C188.576 33.3353 188.282 33.4962 187.9 33.6194C187.518 33.7401 186.962 33.8708 186.235 34.0116C185.106 34.2328 184.329 34.5168 183.904 34.8587C183.482 35.2031 183.268 35.6958 183.268 36.3419C183.268 37.4505 183.905 38.006 185.174 38.006C185.677 38.006 186.147 37.9206 186.58 37.7496C187.015 37.5787 187.387 37.3474 187.699 37.0533C188.01 36.7617 188.264 36.4173 188.456 36.0251C188.647 35.633 188.742 35.2132 188.742 34.7707L188.772 33.1367L188.777 33.1342Z" fill="#1D1D1C"/>
<path d="M203.904 38.4589C203.622 39.1251 203.112 39.6429 202.375 40.0175C201.639 40.3921 200.806 40.5781 199.879 40.5781C199.092 40.5781 198.365 40.4524 197.701 40.201C197.035 39.9496 196.461 39.5851 195.976 39.1125C195.491 38.6399 195.114 38.0743 194.842 37.4182C194.571 36.7621 194.435 36.023 194.435 35.196V25.5454H198.367V34.6203C198.367 36.4755 199.205 37.4031 200.879 37.4031C201.787 37.4031 202.519 37.1417 203.072 36.6163C203.627 36.0909 203.904 35.4273 203.904 34.6203V25.5454H207.837V40.8219C207.837 41.8702 207.661 42.8079 207.306 43.6349C206.954 44.462 206.469 45.1583 205.853 45.7214C205.237 46.2845 204.51 46.7194 203.675 47.021C202.838 47.3227 201.945 47.476 200.997 47.476C198.8 47.476 197.155 46.9205 196.067 45.8119C194.978 44.7033 194.432 43.1799 194.432 41.2443H198.093C198.093 42.1316 198.35 42.828 198.865 43.3307C199.381 43.8335 200.153 44.0874 201.181 44.0874C201.543 44.0874 201.888 44.012 202.209 43.8611C202.531 43.7103 202.82 43.4992 203.072 43.2252C203.323 42.9537 203.527 42.6143 203.678 42.2121C203.829 41.8074 203.904 41.3649 203.904 40.8823V38.4615V38.4589Z" fill="#1D1D1C"/>
<path d="M218.578 30.0498C218.477 29.3233 218.216 28.8155 217.791 28.5214C217.369 28.2298 216.702 28.084 215.795 28.084C215.048 28.084 214.474 28.1796 214.07 28.3706C213.665 28.5617 213.464 28.8809 213.464 29.3233C213.464 29.7658 213.665 30.1051 214.07 30.3364C214.472 30.5677 215.078 30.7964 215.885 31.0177C216.732 31.259 217.539 31.4777 218.306 31.6687C219.073 31.8598 219.747 32.0684 220.333 32.2897C221.12 32.6114 221.723 33.0513 222.148 33.6044C222.573 34.1599 222.784 34.9191 222.784 35.8895C222.784 37.443 222.234 38.6522 221.135 39.5194C220.036 40.3867 218.417 40.8191 216.28 40.8191C213.982 40.8191 212.222 40.3339 211 39.3661C209.778 38.3983 209.149 37.1589 209.109 35.6456H213.162C213.162 36.352 213.434 36.895 213.979 37.2796C214.525 37.6617 215.279 37.8553 216.247 37.8553C216.954 37.8553 217.567 37.7396 218.093 37.5084C218.616 37.2771 218.88 36.8774 218.88 36.3143C218.88 35.7889 218.643 35.4169 218.168 35.1956C217.693 34.9744 217.135 34.7834 216.488 34.62C215.239 34.3183 214.231 34.0443 213.464 33.803C212.697 33.5617 212.051 33.27 211.528 32.9257C210.821 32.4832 210.333 31.9779 210.059 31.4123C209.788 30.8492 209.652 30.2333 209.652 29.5672C209.652 28.9412 209.762 28.358 209.984 27.8125C210.205 27.267 210.57 26.7995 211.072 26.4048C211.575 26.0126 212.227 25.7034 213.024 25.4822C213.821 25.261 214.784 25.1504 215.913 25.1504C218.07 25.1504 219.659 25.5652 220.677 26.3897C221.696 27.2168 222.256 28.436 222.357 30.0498H218.575H218.578Z" fill="#1D1D1C"/>
<path d="M140.549 34.4969C140.549 35.4245 140.363 36.1409 139.988 36.6437C139.614 37.149 139.036 37.4004 138.249 37.4004C137.462 37.4004 136.861 37.1439 136.509 36.6286C136.157 36.1133 135.978 35.3843 135.978 34.4365V28.3254H142.02V25.5426H135.978V21.5205H132.106V25.5426H130.039V28.3204H132.106V34.8287C132.106 35.6356 132.217 36.4024 132.438 37.1263C132.659 37.8528 133.016 38.4888 133.511 39.0318C134.007 39.5773 134.635 40.0097 135.402 40.3315C136.169 40.6532 137.097 40.8141 138.186 40.8141C139.274 40.8141 140.137 40.6532 140.894 40.3315C141.65 40.0097 142.274 39.5698 142.769 39.0142C143.265 38.4612 143.627 37.8252 143.858 37.1087C144.089 36.3923 144.205 35.3264 144.205 34.5421L140.544 34.4944L140.549 34.4969Z" fill="#1D1D1C"/>
<path d="M226.43 40.4219C227.475 40.4219 228.321 39.5755 228.321 38.5315C228.321 37.4875 227.475 36.6411 226.43 36.6411C225.386 36.6411 224.54 37.4875 224.54 38.5315C224.54 39.5755 225.386 40.4219 226.43 40.4219Z" fill="#2AD884"/>
<path d="M31.9132 9.2958C31.4581 7.91068 30.5102 6.68393 28.7425 6.12335C27.3269 5.67589 25.6121 5.70857 24.0381 6.21133C21.9135 6.88755 20.342 8.30786 19.726 10.1078C19.6631 10.2938 19.6053 10.4974 19.5575 10.7161C19.7989 10.6306 20.0352 10.5376 20.2716 10.4446C20.2992 10.432 20.3294 10.422 20.3571 10.4094C20.5557 10.329 20.7543 10.2511 20.953 10.1756C21.3452 10.0273 21.74 9.89157 22.1549 9.8061C23.2637 9.57735 24.3952 9.57735 25.5141 9.44914C27.42 9.23044 29.3234 8.94889 31.2242 9.18519C31.4556 9.21284 31.6869 9.25055 31.9157 9.2958H31.9132Z" fill="#1D1D1C" stroke="#1D1D1C" stroke-width="0.236268" stroke-miterlimit="10"/>
<path d="M45.8455 24.1654C45.8455 24.1654 41.1361 -1.40275 11.0364 13.5243C11.0364 13.5243 8.76335 14.286 8.48425 18.8939C8.11967 24.9321 12.4444 40.8119 17.6894 46.9004C19.1478 48.5947 20.4628 49.2559 21.2875 49.5676C22.5849 50.0578 23.8069 50.1181 24.9459 50.0477C32.5193 49.5827 39.899 45.0804 39.899 45.0804C41.9205 43.8285 44.5581 41.9758 47.3591 39.3137C50.0194 36.7848 51.4425 33.1749 51.0402 29.5248C50.7435 26.825 49.4838 24.2986 45.8455 24.1654Z" fill="white" stroke="#1D1D1C" stroke-width="1.41761" stroke-miterlimit="10"/>
<path d="M49.9541 23.9492C49.8711 23.6903 49.72 23.2477 49.3705 23.0616C48.9305 22.8279 48.405 23.044 47.5702 23.3859C47.1855 23.5443 46.7128 23.7404 46.1395 24.1451C45.3047 24.7333 44.6661 25.1883 44.651 25.6936C44.6208 26.7469 47.2936 28.582 48.9959 27.5136C50.2204 26.7444 50.2581 24.8992 49.9362 23.8912L49.9541 23.9492Z" fill="#1D1D1C" stroke="#1D1D1C" stroke-width="1.89014" stroke-miterlimit="10"/>
<path d="M20.3421 7.41549C18.2829 6.31694 16.2009 6.91775 15.0871 7.23952C12.5651 7.96853 8.98969 10.1832 8.71311 13.6548C8.55219 15.6809 9.60823 17.2546 9.92755 17.7171C10.6442 18.7554 11.5217 19.4115 12.2534 19.8187C12.985 20.2259 13.85 20.3793 14.6898 20.2611C16.2663 20.0399 18.5242 19.4316 20.5508 17.7247C21.6546 16.7946 23.196 15.4899 23.46 13.328C23.7416 11.0027 22.4391 8.53163 20.3421 7.41297V7.41549Z" fill="#1D1D1C" stroke="#1D1D1C" stroke-width="0.236268" stroke-miterlimit="10"/>
<path d="M43.273 29.2352C43.5597 24.6047 39.9691 19.7052 35.9059 19.6851C31.5107 19.6625 28.9938 25.3563 28.7298 25.9521C28.0987 27.3799 26.5373 30.9144 28.4533 34.0818C30.1127 36.8219 33.5499 37.928 36.3937 37.4378C40.4393 36.7389 43.0467 32.8475 43.273 29.2377V29.2352Z" fill="#1D1D1C" stroke="#1D1D1C" stroke-width="0.236268" stroke-miterlimit="10"/>
<path d="M50.3184 35.08C50.0946 34.9393 48.9732 37.9106 46.4789 38.5164C44.7767 38.9287 43.0342 38.0916 41.6211 37.066C41.249 36.7945 40.721 36.983 40.6103 37.4305V37.4455C40.5425 37.6994 40.638 37.9659 40.8492 38.1218C41.3571 38.4963 42.0611 38.9362 42.9563 39.2857C43.9293 39.6678 45.3801 40.2359 46.8058 39.8437C49.544 39.0896 50.5673 35.2384 50.3184 35.0826V35.08Z" fill="#1D1D1C"/>
<path d="M38.1088 28.1493C39.0531 28.1493 39.8186 27.3839 39.8186 26.4399C39.8186 25.4958 39.0531 24.7305 38.1088 24.7305C37.1645 24.7305 36.399 25.4958 36.399 26.4399C36.399 27.3839 37.1645 28.1493 38.1088 28.1493Z" fill="white"/>
<path d="M48.9806 23.1346C48.4048 22.9939 47.7913 23.1799 47.3789 23.6173C47.653 23.5419 48.1936 23.4363 48.8549 23.572C49.4709 23.6977 49.9008 23.9768 50.1271 24.1452C50.0995 24.0748 49.7927 23.3332 48.9831 23.1346H48.9806Z" fill="white"/>
<path d="M13.6661 8.94127C13.1054 9.24293 12.2782 9.69794 11.5591 10.6331C11.2021 11.0981 10.2642 12.4631 10.3622 14.3711C10.4226 15.5426 10.8475 16.4199 11.114 16.8774C10.8928 15.5602 11.0864 14.5345 11.2398 13.9639C11.6295 12.5134 12.419 11.5707 13.0325 10.8367C13.7994 9.91915 14.516 9.37868 14.6996 9.24293C15.562 8.60693 16.3842 8.23237 16.9801 8.01367C16.256 8.05389 15.0038 8.21981 13.6661 8.94379V8.94127Z" fill="white"/>
</svg>
