<svg width="246" height="78" viewBox="0 0 246 78" fill="none" xmlns="http://www.w3.org/2000/svg">
<path d="M204.349 11.8181C196.211 10.496 188.071 9.1737 179.909 7.95867C189.013 10.1058 198.17 12.774 206.777 16.1093C219.999 21.233 231.958 27.9438 240.436 36.7885L240.446 36.7991L240.456 36.8103C241.833 38.4274 243.285 40.1612 244.053 42.0974L244.056 42.1042L244.058 42.111C245.141 45.0921 244.704 48.3063 243.061 51.0496C240.653 55.0785 236.19 58.4231 230.594 61.2127C224.988 64.0072 218.188 66.2722 211.034 68.1124C196.726 71.7929 180.932 73.791 170.283 74.9052L170.27 74.7777L170.272 74.9065C163.175 75.4578 156.05 75.8953 148.934 76.3188L148.924 76.3194L148.914 76.3196C146.36 76.3667 143.804 76.4202 141.248 76.4737C137.194 76.5585 133.138 76.6434 129.084 76.7031L129.084 76.7032L129.072 76.7031C117.556 76.5964 106.037 76.4073 94.5212 75.7733C89.2698 75.5761 84.029 75.1254 78.8026 74.6758C76.2947 74.4601 73.7901 74.2447 71.2892 74.0577L71.2741 74.0566L71.2592 74.0546C69.0656 73.7567 66.8626 73.4766 64.6567 73.1961C59.5898 72.5517 54.5079 71.9054 49.4901 71.0387L49.4836 71.0374C35.7515 68.4777 20.8503 65.6829 10.1698 58.0906C2.57525 52.6997 -0.94772 44.3701 1.43269 36.8043C3.03092 31.6684 7.24123 27.3053 12.229 23.8255C22.5253 16.5792 35.744 12.1533 49.0695 8.82338C52.9764 7.70554 57.0144 6.84166 61.0282 5.98297C62.0175 5.77132 63.0053 5.55999 63.9894 5.34525L64.0023 5.34244L64.0153 5.34031L76.9824 3.21982L76.9824 3.21963L76.9962 3.21777C104.792 -0.538335 133.46 -0.18851 161.348 4.24679C175.428 5.88884 189.367 8.22705 203.281 10.5611C208.823 11.4909 214.362 12.42 219.905 13.3042L219.748 14.2919C214.613 13.4854 209.481 12.6518 204.349 11.8181ZM137.15 3.50294C135.355 3.41465 133.556 3.32618 131.752 3.21547L120.861 3.02609C120.86 3.02609 120.859 3.02608 120.859 3.02607C117.756 2.99671 114.661 3.07102 111.556 3.1456C109.737 3.18929 107.914 3.23306 106.083 3.25614C104.752 3.33315 103.421 3.40574 102.091 3.47828C96.7611 3.76898 91.447 4.05882 86.1762 4.62886L86.1698 4.62946C64.5428 6.69138 42.6797 10.4259 24.336 19.1131C16.7257 22.8399 9.4603 27.4583 5.70687 33.6073C2.26317 39.3207 2.94954 46.3679 7.47959 51.8705C11.3724 56.57 17.8961 59.9175 24.7598 62.1372C38.3575 66.4302 52.9882 68.2807 67.505 69.9958L67.5089 69.9963C72.2362 70.5922 76.9891 70.9381 81.757 71.2852C84.3954 71.4773 87.0383 71.6697 89.684 71.905C92.3911 72.0095 95.0936 72.1358 97.7936 72.2619C103.972 72.5506 110.137 72.8387 116.315 72.8647L116.321 72.8647C120.52 72.93 124.72 72.9923 128.92 73.0517C132.048 73 135.179 72.9447 138.309 72.8895C141.76 72.8285 145.212 72.7676 148.659 72.7115C151.35 72.5249 154.042 72.3693 156.729 72.214C162.101 71.9035 167.459 71.5938 172.781 71.0385L172.816 71.0348L172.817 71.0348C182.403 69.9669 195.292 68.2745 207.338 65.4544C219.425 62.6244 230.561 58.6805 236.697 53.1664C239.962 50.175 241.835 46.5952 240.807 42.8625C240.316 41.3485 239.27 39.9505 238.148 38.5047C237.296 37.4654 236.354 36.4653 235.326 35.511C231.953 32.4273 228.331 29.49 224.247 26.9363C210.259 18.4107 193.364 12.8794 176.186 8.8945C166.483 6.773 156.463 4.81911 146.37 4.06734L146.364 4.06688C143.297 3.80521 140.229 3.65433 137.15 3.50294Z" fill="#FF9067" stroke="#FF9067"/>
</svg>
