<svg width="180" height="18" viewBox="0 0 180 18" fill="none" xmlns="http://www.w3.org/2000/svg">
<path d="M0.84 14V4.2H6.804V5.18H1.82V8.26H5.943V9.24H1.82V13.02H6.804V14H0.84ZM7.69672 14L10.2587 10.486L7.70372 6.979H8.91472L10.8677 9.646L12.8137 6.979H14.0177L11.4697 10.486L14.0317 14H12.8207L10.8677 11.312L8.90772 14H7.69672ZM16.2712 17.5H15.2912V7H16.2712V8.309C16.5138 7.86567 16.8452 7.50633 17.2652 7.231C17.6852 6.95567 18.1845 6.818 18.7632 6.818C19.2718 6.818 19.7478 6.91367 20.1912 7.105C20.6392 7.29633 21.0312 7.56233 21.3672 7.903C21.7032 8.239 21.9668 8.62867 22.1582 9.072C22.3495 9.51533 22.4452 9.99133 22.4452 10.5C22.4452 11.0087 22.3495 11.487 22.1582 11.935C21.9668 12.383 21.7032 12.7773 21.3672 13.118C21.0312 13.454 20.6392 13.7177 20.1912 13.909C19.7478 14.1003 19.2718 14.196 18.7632 14.196C18.1845 14.196 17.6852 14.0583 17.2652 13.783C16.8452 13.5077 16.5138 13.1483 16.2712 12.705V17.5ZM18.7562 7.77C18.2662 7.77 17.8392 7.89367 17.4752 8.141C17.1158 8.38367 16.8382 8.71033 16.6422 9.121C16.4462 9.53167 16.3482 9.99133 16.3482 10.5C16.3482 10.9993 16.4438 11.4567 16.6352 11.872C16.8312 12.2873 17.1088 12.6187 17.4682 12.866C17.8322 13.1133 18.2615 13.237 18.7562 13.237C19.2415 13.237 19.6872 13.1157 20.0932 12.873C20.5038 12.6303 20.8328 12.3037 21.0802 11.893C21.3275 11.4777 21.4512 11.0133 21.4512 10.5C21.4512 10.0007 21.3298 9.54567 21.0872 9.135C20.8445 8.71967 20.5202 8.38833 20.1142 8.141C19.7082 7.89367 19.2555 7.77 18.7562 7.77ZM26.6427 14.182C25.9987 14.182 25.4107 14.0163 24.8787 13.685C24.3513 13.3537 23.929 12.9103 23.6117 12.355C23.299 11.795 23.1427 11.1767 23.1427 10.5C23.1427 9.98667 23.2337 9.50833 23.4157 9.065C23.5977 8.617 23.8473 8.225 24.1647 7.889C24.4867 7.54833 24.86 7.28233 25.2847 7.091C25.7093 6.89967 26.162 6.804 26.6427 6.804C27.1607 6.804 27.6367 6.90667 28.0707 7.112C28.5093 7.31733 28.885 7.60433 29.1977 7.973C29.515 8.34167 29.753 8.77333 29.9117 9.268C30.075 9.76267 30.1427 10.297 30.1147 10.871H24.1787C24.2347 11.3143 24.3747 11.711 24.5987 12.061C24.8273 12.411 25.1167 12.6887 25.4667 12.894C25.8213 13.0947 26.2133 13.1973 26.6427 13.202C27.1093 13.202 27.5293 13.0807 27.9027 12.838C28.2807 12.5953 28.584 12.2617 28.8127 11.837L29.8067 12.068C29.5267 12.6887 29.1043 13.1973 28.5397 13.594C27.975 13.986 27.3427 14.182 26.6427 14.182ZM24.1507 10.08H29.1277C29.095 9.646 28.962 9.24933 28.7287 8.89C28.5 8.526 28.2037 8.23667 27.8397 8.022C27.4757 7.80267 27.0767 7.693 26.6427 7.693C26.2087 7.693 25.812 7.80033 25.4527 8.015C25.0933 8.225 24.7993 8.512 24.5707 8.876C24.342 9.23533 24.202 9.63667 24.1507 10.08ZM31.3146 14V7H32.2946V7.966C32.5419 7.61133 32.8639 7.329 33.2606 7.119C33.6573 6.909 34.0889 6.804 34.5556 6.804C34.8263 6.804 35.0876 6.839 35.3396 6.909L34.9406 7.882C34.7446 7.82133 34.5533 7.791 34.3666 7.791C33.9886 7.791 33.6409 7.88433 33.3236 8.071C33.0109 8.25767 32.7613 8.50733 32.5746 8.82C32.3879 9.13267 32.2946 9.48033 32.2946 9.863V14H31.3146ZM39.8955 7.98H38.2225L38.2155 14H37.2355L37.2425 7.98H35.9755V7H37.2425L37.2355 4.802H38.2155L38.2225 7H39.8955V7.98ZM41.008 9.31H45.488V10.29H41.008V9.31ZM52.172 12.243L53.047 12.719C52.7297 13.1623 52.326 13.517 51.836 13.783C51.3507 14.049 50.8233 14.182 50.254 14.182C49.61 14.182 49.022 14.0163 48.49 13.685C47.9627 13.3537 47.5403 12.9103 47.223 12.355C46.9103 11.795 46.754 11.1767 46.754 10.5C46.754 9.98667 46.845 9.50833 47.027 9.065C47.209 8.617 47.4587 8.225 47.776 7.889C48.098 7.54833 48.4713 7.28233 48.896 7.091C49.3207 6.89967 49.7733 6.804 50.254 6.804C50.8233 6.804 51.3507 6.937 51.836 7.203C52.326 7.469 52.7297 7.826 53.047 8.274L52.172 8.743C51.9293 8.435 51.6377 8.19933 51.297 8.036C50.9563 7.868 50.6087 7.784 50.254 7.784C49.7827 7.784 49.3557 7.91 48.973 8.162C48.5903 8.40933 48.287 8.73833 48.063 9.149C47.8437 9.55967 47.734 10.01 47.734 10.5C47.734 10.99 47.846 11.4403 48.07 11.851C48.2987 12.2617 48.6043 12.5907 48.987 12.838C49.3697 13.0807 49.792 13.202 50.254 13.202C50.6367 13.202 50.996 13.1133 51.332 12.936C51.668 12.7587 51.948 12.5277 52.172 12.243ZM57.295 14.182C56.651 14.182 56.063 14.0163 55.531 13.685C55.0037 13.3537 54.5813 12.9103 54.264 12.355C53.9513 11.795 53.795 11.1767 53.795 10.5C53.795 9.98667 53.886 9.50833 54.068 9.065C54.25 8.617 54.4997 8.225 54.817 7.889C55.139 7.54833 55.5123 7.28233 55.937 7.091C56.3617 6.89967 56.8143 6.804 57.295 6.804C57.939 6.804 58.5247 6.96967 59.052 7.301C59.584 7.63233 60.0063 8.078 60.319 8.638C60.6363 9.198 60.795 9.81867 60.795 10.5C60.795 11.0087 60.704 11.4847 60.522 11.928C60.34 12.3713 60.088 12.7633 59.766 13.104C59.4487 13.44 59.0777 13.7037 58.653 13.895C58.233 14.0863 57.7803 14.182 57.295 14.182ZM57.295 13.202C57.771 13.202 58.198 13.0783 58.576 12.831C58.9587 12.579 59.2597 12.2477 59.479 11.837C59.703 11.4263 59.815 10.9807 59.815 10.5C59.815 10.01 59.703 9.55967 59.479 9.149C59.255 8.73367 58.9517 8.40233 58.569 8.155C58.191 7.90767 57.7663 7.784 57.295 7.784C56.819 7.784 56.3897 7.91 56.007 8.162C55.629 8.40933 55.328 8.73833 55.104 9.149C54.8847 9.55967 54.775 10.01 54.775 10.5C54.775 11.004 54.8893 11.4613 55.118 11.872C55.3467 12.278 55.6523 12.6023 56.035 12.845C56.4177 13.083 56.8377 13.202 57.295 13.202ZM61.9806 14V7H62.9606V7.966C63.2126 7.61133 63.5346 7.329 63.9266 7.119C64.3186 6.909 64.748 6.804 65.2146 6.804C65.742 6.804 66.225 6.93467 66.6636 7.196C67.1023 7.45267 67.4453 7.79567 67.6926 8.225C67.94 7.79567 68.2806 7.45267 68.7146 7.196C69.1486 6.93467 69.6293 6.804 70.1566 6.804C70.684 6.804 71.1646 6.93233 71.5986 7.189C72.0326 7.44567 72.378 7.791 72.6346 8.225C72.8913 8.659 73.0196 9.13967 73.0196 9.667V14H72.0396V9.884C72.0396 9.51067 71.9486 9.16533 71.7666 8.848C71.5846 8.53067 71.3396 8.27633 71.0316 8.085C70.7283 7.889 70.39 7.791 70.0166 7.791C69.6433 7.791 69.3026 7.882 68.9946 8.064C68.6913 8.24133 68.4486 8.48867 68.2666 8.806C68.0846 9.11867 67.9936 9.478 67.9936 9.884V14H67.0136V9.884C67.0136 9.478 66.9226 9.11867 66.7406 8.806C66.5586 8.48867 66.3136 8.24133 66.0056 8.064C65.6976 7.882 65.357 7.791 64.9836 7.791C64.615 7.791 64.2766 7.889 63.9686 8.085C63.6606 8.27633 63.4156 8.53067 63.2336 8.848C63.0516 9.16533 62.9606 9.51067 62.9606 9.884V14H61.9806ZM75.402 17.5H74.422V7H75.402V8.309C75.6447 7.86567 75.976 7.50633 76.396 7.231C76.816 6.95567 77.3154 6.818 77.894 6.818C78.4027 6.818 78.8787 6.91367 79.322 7.105C79.77 7.29633 80.162 7.56233 80.498 7.903C80.834 8.239 81.0977 8.62867 81.289 9.072C81.4804 9.51533 81.576 9.99133 81.576 10.5C81.576 11.0087 81.4804 11.487 81.289 11.935C81.0977 12.383 80.834 12.7773 80.498 13.118C80.162 13.454 79.77 13.7177 79.322 13.909C78.8787 14.1003 78.4027 14.196 77.894 14.196C77.3154 14.196 76.816 14.0583 76.396 13.783C75.976 13.5077 75.6447 13.1483 75.402 12.705V17.5ZM77.887 7.77C77.397 7.77 76.97 7.89367 76.606 8.141C76.2467 8.38367 75.969 8.71033 75.773 9.121C75.577 9.53167 75.479 9.99133 75.479 10.5C75.479 10.9993 75.5747 11.4567 75.766 11.872C75.962 12.2873 76.2397 12.6187 76.599 12.866C76.963 13.1133 77.3924 13.237 77.887 13.237C78.3724 13.237 78.818 13.1157 79.224 12.873C79.6347 12.6303 79.9637 12.3037 80.211 11.893C80.4584 11.4777 80.582 11.0133 80.582 10.5C80.582 10.0007 80.4607 9.54567 80.218 9.135C79.9754 8.71967 79.651 8.38833 79.245 8.141C78.839 7.89367 78.3864 7.77 77.887 7.77ZM86.2158 7.98H84.5428L84.5358 14H83.5558L83.5628 7.98H82.2958V7H83.5628L83.5558 4.802H84.5358L84.5428 7H86.2158V7.98ZM93.0276 7H94.0076V14H93.0276L92.9926 12.698C92.7639 13.1413 92.4443 13.5007 92.0336 13.776C91.6229 14.0467 91.1329 14.182 90.5636 14.182C90.0503 14.182 89.5696 14.0863 89.1216 13.895C88.6736 13.699 88.2793 13.4307 87.9386 13.09C87.5979 12.7493 87.3319 12.355 87.1406 11.907C86.9493 11.459 86.8536 10.9783 86.8536 10.465C86.8536 9.961 86.9469 9.48733 87.1336 9.044C87.3249 8.60067 87.5863 8.211 87.9176 7.875C88.2536 7.539 88.6409 7.27767 89.0796 7.091C89.5229 6.89967 89.9966 6.804 90.5006 6.804C91.0839 6.804 91.5926 6.944 92.0266 7.224C92.4606 7.49933 92.8059 7.861 93.0626 8.309L93.0276 7ZM90.5426 13.23C91.0419 13.23 91.4713 13.1087 91.8306 12.866C92.1899 12.6187 92.4653 12.2873 92.6566 11.872C92.8526 11.4567 92.9506 10.9993 92.9506 10.5C92.9506 9.98667 92.8526 9.52467 92.6566 9.114C92.4606 8.69867 92.1829 8.36967 91.8236 8.127C91.4643 7.88433 91.0373 7.763 90.5426 7.763C90.0479 7.763 89.5953 7.88667 89.1846 8.134C88.7786 8.37667 88.4543 8.70567 88.2116 9.121C87.9736 9.53633 87.8546 9.996 87.8546 10.5C87.8546 11.0087 87.9783 11.4707 88.2256 11.886C88.4729 12.2967 88.7996 12.6233 89.2056 12.866C89.6163 13.1087 90.0619 13.23 90.5426 13.23ZM98.9761 6.804C99.6574 6.804 100.276 6.96967 100.831 7.301C101.391 7.63233 101.837 8.078 102.168 8.638C102.499 9.19333 102.665 9.81167 102.665 10.493C102.665 11.0017 102.569 11.48 102.378 11.928C102.187 12.3713 101.921 12.7633 101.58 13.104C101.244 13.44 100.852 13.7037 100.404 13.895C99.9607 14.0863 99.4847 14.182 98.9761 14.182C98.3974 14.182 97.8981 14.0443 97.4781 13.769C97.0581 13.4937 96.7267 13.1343 96.4841 12.691V14H95.5041V3.5H96.4841V8.295C96.7267 7.85167 97.0581 7.49233 97.4781 7.217C97.8981 6.94167 98.3974 6.804 98.9761 6.804ZM98.9691 13.223C99.4684 13.223 99.9211 13.1017 100.327 12.859C100.733 12.6117 101.057 12.2803 101.3 11.865C101.543 11.4497 101.664 10.9923 101.664 10.493C101.664 9.97967 101.54 9.51767 101.293 9.107C101.046 8.69167 100.717 8.36267 100.306 8.12C99.9001 7.87733 99.4544 7.756 98.9691 7.756C98.4744 7.756 98.0451 7.87967 97.6811 8.127C97.3217 8.37433 97.0441 8.70567 96.8481 9.121C96.6567 9.53633 96.5611 9.99367 96.5611 10.493C96.5611 11.0017 96.6591 11.4637 96.8551 11.879C97.0511 12.2897 97.3287 12.6163 97.6881 12.859C98.0521 13.1017 98.4791 13.223 98.9691 13.223ZM103.803 14V3.5H104.783V14H103.803ZM109.494 14.182C108.85 14.182 108.262 14.0163 107.73 13.685C107.203 13.3537 106.781 12.9103 106.463 12.355C106.151 11.795 105.994 11.1767 105.994 10.5C105.994 9.98667 106.085 9.50833 106.267 9.065C106.449 8.617 106.699 8.225 107.016 7.889C107.338 7.54833 107.712 7.28233 108.136 7.091C108.561 6.89967 109.014 6.804 109.494 6.804C110.012 6.804 110.488 6.90667 110.922 7.112C111.361 7.31733 111.737 7.60433 112.049 7.973C112.367 8.34167 112.605 8.77333 112.763 9.268C112.927 9.76267 112.994 10.297 112.966 10.871H107.03C107.086 11.3143 107.226 11.711 107.45 12.061C107.679 12.411 107.968 12.6887 108.318 12.894C108.673 13.0947 109.065 13.1973 109.494 13.202C109.961 13.202 110.381 13.0807 110.754 12.838C111.132 12.5953 111.436 12.2617 111.664 11.837L112.658 12.068C112.378 12.6887 111.956 13.1973 111.391 13.594C110.827 13.986 110.194 14.182 109.494 14.182ZM107.002 10.08H111.979C111.947 9.646 111.814 9.24933 111.58 8.89C111.352 8.526 111.055 8.23667 110.691 8.022C110.327 7.80267 109.928 7.693 109.494 7.693C109.06 7.693 108.664 7.80033 108.304 8.015C107.945 8.225 107.651 8.512 107.422 8.876C107.194 9.23533 107.054 9.63667 107.002 10.08ZM122.596 12.243L123.471 12.719C123.153 13.1623 122.75 13.517 122.26 13.783C121.774 14.049 121.247 14.182 120.678 14.182C120.034 14.182 119.446 14.0163 118.914 13.685C118.386 13.3537 117.964 12.9103 117.647 12.355C117.334 11.795 117.178 11.1767 117.178 10.5C117.178 9.98667 117.269 9.50833 117.451 9.065C117.633 8.617 117.882 8.225 118.2 7.889C118.522 7.54833 118.895 7.28233 119.32 7.091C119.744 6.89967 120.197 6.804 120.678 6.804C121.247 6.804 121.774 6.937 122.26 7.203C122.75 7.469 123.153 7.826 123.471 8.274L122.596 8.743C122.353 8.435 122.061 8.19933 121.721 8.036C121.38 7.868 121.032 7.784 120.678 7.784C120.206 7.784 119.779 7.91 119.397 8.162C119.014 8.40933 118.711 8.73833 118.487 9.149C118.267 9.55967 118.158 10.01 118.158 10.5C118.158 10.99 118.27 11.4403 118.494 11.851C118.722 12.2617 119.028 12.5907 119.411 12.838C119.793 13.0807 120.216 13.202 120.678 13.202C121.06 13.202 121.42 13.1133 121.756 12.936C122.092 12.7587 122.372 12.5277 122.596 12.243ZM127.719 14.182C127.075 14.182 126.487 14.0163 125.955 13.685C125.427 13.3537 125.005 12.9103 124.688 12.355C124.375 11.795 124.219 11.1767 124.219 10.5C124.219 9.98667 124.31 9.50833 124.492 9.065C124.674 8.617 124.923 8.225 125.241 7.889C125.563 7.54833 125.936 7.28233 126.361 7.091C126.785 6.89967 127.238 6.804 127.719 6.804C128.237 6.804 128.713 6.90667 129.147 7.112C129.585 7.31733 129.961 7.60433 130.274 7.973C130.591 8.34167 130.829 8.77333 130.988 9.268C131.151 9.76267 131.219 10.297 131.191 10.871H125.255C125.311 11.3143 125.451 11.711 125.675 12.061C125.903 12.411 126.193 12.6887 126.543 12.894C126.897 13.0947 127.289 13.1973 127.719 13.202C128.185 13.202 128.605 13.0807 128.979 12.838C129.357 12.5953 129.66 12.2617 129.889 11.837L130.883 12.068C130.603 12.6887 130.18 13.1973 129.616 13.594C129.051 13.986 128.419 14.182 127.719 14.182ZM125.227 10.08H130.204C130.171 9.646 130.038 9.24933 129.805 8.89C129.576 8.526 129.28 8.23667 128.916 8.022C128.552 7.80267 128.153 7.693 127.719 7.693C127.285 7.693 126.888 7.80033 126.529 8.015C126.169 8.225 125.875 8.512 125.647 8.876C125.418 9.23533 125.278 9.63667 125.227 10.08ZM132.391 14V7H133.371V7.966C133.618 7.61133 133.94 7.329 134.337 7.119C134.733 6.909 135.165 6.804 135.632 6.804C135.902 6.804 136.164 6.839 136.416 6.909L136.017 7.882C135.821 7.82133 135.629 7.791 135.443 7.791C135.065 7.791 134.717 7.88433 134.4 8.071C134.087 8.25767 133.837 8.50733 133.651 8.82C133.464 9.13267 133.371 9.48033 133.371 9.863V14H132.391ZM140.972 7.98H139.299L139.292 14H138.312L138.319 7.98H137.052V7H138.319L138.312 4.802H139.292L139.299 7H140.972V7.98ZM142.166 7H143.146V14H142.166V7ZM142.663 5.775C142.505 5.775 142.369 5.72367 142.257 5.621C142.15 5.51367 142.096 5.38067 142.096 5.222C142.096 5.06333 142.15 4.93267 142.257 4.83C142.369 4.72267 142.505 4.669 142.663 4.669C142.817 4.669 142.948 4.72267 143.055 4.83C143.167 4.93267 143.223 5.06333 143.223 5.222C143.223 5.38067 143.17 5.51367 143.062 5.621C142.955 5.72367 142.822 5.775 142.663 5.775ZM146.281 5.173V7H148.381V7.98H146.281V14H145.301V7.98H144.342V7H145.301V5.173C145.301 4.83233 145.383 4.52433 145.546 4.249C145.714 3.969 145.938 3.74733 146.218 3.584C146.498 3.416 146.809 3.332 147.149 3.332C147.397 3.332 147.635 3.381 147.863 3.479C148.097 3.577 148.304 3.72167 148.486 3.913L147.786 4.606C147.712 4.51267 147.616 4.44033 147.499 4.389C147.387 4.33767 147.271 4.312 147.149 4.312C146.911 4.312 146.706 4.396 146.533 4.564C146.365 4.732 146.281 4.935 146.281 5.173ZM149.453 7H150.433V14H149.453V7ZM149.95 5.775C149.792 5.775 149.656 5.72367 149.544 5.621C149.437 5.51367 149.383 5.38067 149.383 5.222C149.383 5.06333 149.437 4.93267 149.544 4.83C149.656 4.72267 149.792 4.669 149.95 4.669C150.104 4.669 150.235 4.72267 150.342 4.83C150.454 4.93267 150.51 5.06333 150.51 5.222C150.51 5.38067 150.457 5.51367 150.349 5.621C150.242 5.72367 150.109 5.775 149.95 5.775ZM155.131 14.182C154.487 14.182 153.899 14.0163 153.367 13.685C152.84 13.3537 152.417 12.9103 152.1 12.355C151.787 11.795 151.631 11.1767 151.631 10.5C151.631 9.98667 151.722 9.50833 151.904 9.065C152.086 8.617 152.336 8.225 152.653 7.889C152.975 7.54833 153.348 7.28233 153.773 7.091C154.198 6.89967 154.65 6.804 155.131 6.804C155.649 6.804 156.125 6.90667 156.559 7.112C156.998 7.31733 157.373 7.60433 157.686 7.973C158.003 8.34167 158.241 8.77333 158.4 9.268C158.563 9.76267 158.631 10.297 158.603 10.871H152.667C152.723 11.3143 152.863 11.711 153.087 12.061C153.316 12.411 153.605 12.6887 153.955 12.894C154.31 13.0947 154.702 13.1973 155.131 13.202C155.598 13.202 156.018 13.0807 156.391 12.838C156.769 12.5953 157.072 12.2617 157.301 11.837L158.295 12.068C158.015 12.6887 157.593 13.1973 157.028 13.594C156.463 13.986 155.831 14.182 155.131 14.182ZM152.639 10.08H157.616C157.583 9.646 157.45 9.24933 157.217 8.89C156.988 8.526 156.692 8.23667 156.328 8.022C155.964 7.80267 155.565 7.693 155.131 7.693C154.697 7.693 154.3 7.80033 153.941 8.015C153.582 8.225 153.288 8.512 153.059 8.876C152.83 9.23533 152.69 9.63667 152.639 10.08ZM154.886 6.23L155.446 4.214H156.426L155.544 6.23H154.886ZM165.758 14.98H179.758V0.98H165.758V14.98Z" fill="#1D1D1C"/>
</svg>
