<svg width="180" height="11" viewBox="0 0 180 11" fill="none" xmlns="http://www.w3.org/2000/svg">
<path d="M4.80674 9.67124L4.85808 9.66781L4.90847 9.65741C5.8031 9.47279 6.69442 9.33622 7.60709 9.19639C8.03066 9.13149 8.45884 9.06588 8.89407 8.99444L8.89407 8.99445L8.89777 8.99383C12.6392 8.36047 16.3933 7.97991 20.1764 7.59641C22.0536 7.40611 23.938 7.21509 25.8315 6.99211C65.5308 4.11026 105.326 4.98272 145.135 5.8555C155.679 6.08667 166.224 6.31786 176.769 6.47932C177.588 6.50125 178.149 5.9402 178.363 5.35753C178.576 4.7801 178.518 3.99356 177.907 3.47565L177.756 3.34763L177.562 3.31073C175.51 2.92127 173.38 2.86967 171.288 2.87408C170.831 2.87504 170.376 2.87864 169.923 2.88222C168.287 2.89517 166.684 2.90785 165.112 2.79453L165.09 2.79297L165.068 2.79267C155.245 2.6579 145.41 2.45052 135.569 2.243C97.1965 1.43382 58.7251 0.622555 20.4449 4.10633L20.4449 4.1063L20.4378 4.10702C15.4223 4.61189 10.4024 5.18576 5.41124 6.05633L5.34964 6.06707L5.29067 6.08787C5.10247 6.15424 4.79344 6.19921 4.33797 6.25548C4.31198 6.25869 4.28559 6.26193 4.25885 6.26521C3.86117 6.31408 3.3849 6.37261 2.95892 6.48116C2.52788 6.59101 1.97567 6.79108 1.62472 7.2449C1.21662 7.77262 1.23227 8.42119 1.49303 9.0562L1.52453 9.1329L1.57201 9.20087C1.82056 9.55661 2.14578 9.78171 2.51431 9.88958C2.86141 9.99117 3.20339 9.97608 3.48334 9.93733C3.72851 9.90339 3.97842 9.84248 4.18214 9.79282C4.20815 9.78648 4.2334 9.78032 4.2578 9.77443C4.49619 9.71684 4.66657 9.68057 4.80674 9.67124Z" fill="#FFE34F" stroke="#FFE34F" stroke-width="1.5"/>
</svg>
