<svg width="65" height="12" viewBox="0 0 65 12" fill="none" xmlns="http://www.w3.org/2000/svg">
<path d="M61.7936 9.94554C61.7711 9.92748 61.755 9.91502 61.7432 9.90629L61.6867 9.89472L61.5935 9.8311C61.3071 9.6358 61.0396 9.50224 60.738 9.3517C60.5857 9.27569 60.4248 9.19535 60.2484 9.10055L60.2484 9.10059L60.2418 9.09694C59.308 8.57869 58.3601 8.21586 57.3866 7.88686C57.0678 7.77914 56.741 7.67347 56.4101 7.56647C55.7611 7.35658 55.096 7.14153 54.4442 6.89569C40.7183 3.81203 26.9397 5.1218 13.0491 6.44222C9.35463 6.79341 5.65225 7.14536 1.94082 7.4156C1.62427 7.44507 1.42925 7.28181 1.33971 7.18127C1.24228 7.07187 1.1824 6.94315 1.14425 6.84184C1.06577 6.63345 1.0202 6.37903 0.996187 6.13665C0.950566 5.6762 0.96177 5.0313 1.13852 4.53425L1.24856 4.22481L1.52379 4.0434C2.43576 3.44231 3.35134 3.36791 4.10267 3.35749C4.29486 3.35483 4.47415 3.35566 4.64375 3.35644C5.19643 3.35899 5.64611 3.36107 6.10348 3.24025L6.17378 3.22168L6.24358 3.21698C9.64475 2.98775 13.0614 2.6721 16.4884 2.35548C29.9134 1.11519 43.4978 -0.139833 56.9362 3.72842L56.9447 3.73088L56.9531 3.73357C58.7122 4.29777 60.4951 4.95125 62.2689 5.9669L62.3533 6.01525L62.4155 6.08898C62.4175 6.09049 62.4439 6.11082 62.5831 6.16635C62.5928 6.17021 62.6032 6.17429 62.6142 6.17862C62.7504 6.23227 62.9805 6.32285 63.1834 6.49506C63.6878 6.92315 63.8635 7.67308 63.7002 8.92073L63.6957 8.95511L63.6883 8.98954C63.6538 9.14966 63.6095 9.30796 63.5482 9.45535C63.4891 9.5973 63.3932 9.78035 63.2315 9.94234C63.0486 10.1256 62.8247 10.2377 62.5979 10.2614C62.3987 10.2823 62.2461 10.23 62.1563 10.1897C62.0117 10.1247 61.8756 10.0129 61.8131 9.96151C61.8055 9.95521 61.7989 9.94983 61.7936 9.94554ZM61.7223 9.89172C61.7199 9.89022 61.7188 9.88959 61.7188 9.88965C61.7188 9.88972 61.72 9.89047 61.7223 9.89172Z" fill="#2AD884" stroke="#2AD884" stroke-width="1.5"/>
</svg>
