<svg width="525" height="12" viewBox="0 0 525 12" fill="none" xmlns="http://www.w3.org/2000/svg">
<path d="M9.93 9.98537L9.95033 9.9849L9.97059 9.98333C12.6479 9.7762 15.3545 9.62294 18.0689 9.46923C19.3054 9.39921 20.5435 9.3291 21.7813 9.25376L21.7828 9.25367C32.8574 8.5574 44.0568 8.14885 55.2686 7.73985C60.811 7.53767 66.3564 7.33538 71.8913 7.09817C189.41 4.12052 307.756 5.427 426.037 6.73277C457.352 7.07847 488.662 7.42411 519.95 7.6902C520.646 7.69994 521.266 7.61644 521.778 7.46064C522.273 7.31001 522.739 7.06945 523.04 6.70968C523.197 6.52245 523.325 6.28183 523.357 5.99578C523.39 5.70156 523.313 5.42371 523.164 5.18907C522.888 4.75465 522.383 4.48537 521.839 4.31356L521.756 4.28735L521.669 4.28085C514.462 3.74148 506.875 3.74405 499.317 3.74662C494.454 3.74827 489.603 3.74991 484.874 3.60714L484.866 3.60689L484.857 3.60682C455.656 3.37629 426.421 3.06299 397.176 2.74958C283.203 1.52817 169.065 0.304985 56.0743 3.97181L56.0715 3.97191C41.2717 4.50756 26.5106 5.1203 11.8904 6.06881L11.8644 6.07049L11.8386 6.07398C11.0582 6.17935 9.91725 6.23492 8.63939 6.29251C8.57172 6.29556 8.50372 6.29861 8.43543 6.30168C7.23335 6.35566 5.94208 6.41366 4.81476 6.52231C4.21825 6.5798 3.65319 6.65275 3.16137 6.75016C2.68149 6.8452 2.21915 6.97317 1.85873 7.16275C1.52627 7.33762 1.04835 7.69487 1.04264 8.32504C1.03756 8.88646 1.4271 9.3182 1.78207 9.61675L1.84602 9.67054L1.92025 9.70893C3.07548 10.3065 4.53792 10.3527 5.90445 10.2832C6.52424 10.2517 7.15834 10.1935 7.76748 10.1376C7.84352 10.1306 7.91918 10.1236 7.99436 10.1168C8.68039 10.0542 9.32928 9.99919 9.93 9.98537Z" fill="#FFE34F" stroke="#FFE34F" stroke-width="1.5"/>
</svg>
