<svg width="119" height="18" viewBox="0 0 119 18" fill="none" xmlns="http://www.w3.org/2000/svg">
<path d="M0.02 13.3267V1.42666H7.4065V3.19466H1.788V6.06766H6.31V7.83566H1.788V11.5587H7.4065V13.3267H0.02ZM13.7717 6.59466H11.9867L11.9782 13.3267H10.2102L10.2187 6.59466H8.86717V4.82666H10.2187L10.2102 2.15766H11.9782L11.9867 4.82666H13.7717V6.59466ZM21.1454 17.5767H19.3774V4.82666H21.1454V6.07616C21.4288 5.63983 21.7914 5.28566 22.2334 5.01366C22.6754 4.74166 23.1968 4.60566 23.7974 4.60566C24.4151 4.60566 24.9931 4.72183 25.5314 4.95416C26.0754 5.18649 26.5514 5.50949 26.9594 5.92316C27.3674 6.33116 27.6876 6.80433 27.9199 7.34266C28.1523 7.88099 28.2684 8.45899 28.2684 9.07666C28.2684 9.69433 28.1523 10.2752 27.9199 10.8192C27.6876 11.3632 27.3674 11.842 26.9594 12.2557C26.5514 12.6637 26.0754 12.9838 25.5314 13.2162C24.9931 13.4485 24.4151 13.5647 23.7974 13.5647C23.1968 13.5647 22.6754 13.4287 22.2334 13.1567C21.7914 12.879 21.4288 12.5248 21.1454 12.0942V17.5767ZM23.7804 6.31416C23.2874 6.31416 22.8539 6.43883 22.4799 6.68816C22.1059 6.93749 21.8141 7.27183 21.6044 7.69116C21.3948 8.10483 21.2899 8.56666 21.2899 9.07666C21.2899 9.58666 21.3948 10.0513 21.6044 10.4707C21.8141 10.89 22.1059 11.2243 22.4799 11.4737C22.8539 11.723 23.2874 11.8477 23.7804 11.8477C24.2678 11.8477 24.7154 11.7258 25.1234 11.4822C25.5314 11.2328 25.8573 10.8985 26.1009 10.4792C26.3446 10.0598 26.4664 9.59233 26.4664 9.07666C26.4664 8.57233 26.3446 8.11049 26.1009 7.69116C25.8629 7.27183 25.5399 6.93749 25.1319 6.68816C24.7239 6.43883 24.2734 6.31416 23.7804 6.31416ZM29.5376 13.3267V0.576659H31.3056V13.3267H29.5376ZM32.9993 10.1392V4.82666H34.7673V9.70566C34.7673 10.0853 34.8608 10.431 35.0478 10.7427C35.2348 11.0543 35.4842 11.3037 35.7958 11.4907C36.1075 11.672 36.4503 11.7627 36.8243 11.7627C37.204 11.7627 37.5468 11.672 37.8528 11.4907C38.1645 11.3037 38.411 11.0543 38.5923 10.7427C38.7793 10.431 38.8728 10.0853 38.8728 9.70566V4.82666H40.6408L40.6493 13.3267H38.8813L38.8728 12.4087C38.5838 12.76 38.224 13.0377 37.7933 13.2417C37.3627 13.4457 36.9008 13.5477 36.4078 13.5477C35.7788 13.5477 35.2065 13.3947 34.6908 13.0887C34.1752 12.7827 33.7643 12.3718 33.4583 11.8562C33.1523 11.3405 32.9993 10.7682 32.9993 10.1392ZM44.904 13.4882C44.4563 13.4598 44.02 13.3692 43.595 13.2162C43.17 13.0632 42.796 12.8563 42.473 12.5957C42.1557 12.3293 41.9177 12.0177 41.759 11.6607L43.2635 11.0147C43.3372 11.1677 43.4647 11.3178 43.646 11.4652C43.833 11.6125 44.0512 11.7343 44.3005 11.8307C44.5498 11.9213 44.8105 11.9667 45.0825 11.9667C45.3488 11.9667 45.5953 11.9298 45.822 11.8562C46.0543 11.7768 46.2442 11.6578 46.3915 11.4992C46.5388 11.3405 46.6125 11.1507 46.6125 10.9297C46.6125 10.6803 46.5275 10.4877 46.3575 10.3517C46.1932 10.21 45.9863 10.1023 45.737 10.0287C45.4877 9.95499 45.2383 9.88416 44.989 9.81616C44.4337 9.69149 43.9237 9.52149 43.459 9.30616C43 9.08516 42.6345 8.80466 42.3625 8.46466C42.0905 8.11899 41.9545 7.69683 41.9545 7.19816C41.9545 6.65416 42.1018 6.18383 42.3965 5.78716C42.6912 5.38483 43.0765 5.07599 43.5525 4.86066C44.0342 4.64533 44.547 4.53766 45.091 4.53766C45.771 4.53766 46.3943 4.68216 46.961 4.97116C47.5277 5.26016 47.9612 5.65683 48.2615 6.16116L46.859 6.99416C46.774 6.82416 46.6465 6.67116 46.4765 6.53516C46.3065 6.39916 46.1138 6.29149 45.8985 6.21216C45.6832 6.12716 45.4593 6.07899 45.227 6.06766C44.938 6.05633 44.6688 6.09033 44.4195 6.16966C44.1758 6.24333 43.9803 6.36233 43.833 6.52666C43.6857 6.69099 43.612 6.90066 43.612 7.15566C43.612 7.40499 43.6998 7.59199 43.8755 7.71666C44.0512 7.83566 44.2722 7.93199 44.5385 8.00566C44.8105 8.07933 45.0882 8.16149 45.3715 8.25216C45.8758 8.41083 46.349 8.60633 46.791 8.83866C47.233 9.06533 47.59 9.34583 47.862 9.68016C48.134 10.0145 48.2643 10.4225 48.253 10.9042C48.253 11.4368 48.0915 11.9043 47.7685 12.3067C47.4512 12.709 47.0375 13.015 46.5275 13.2247C46.0175 13.4343 45.4763 13.5222 44.904 13.4882ZM57.5325 13.5477C56.7505 13.5477 56.0365 13.3465 55.3905 12.9442C54.7501 12.5418 54.2373 12.0035 53.852 11.3292C53.4723 10.6492 53.2825 9.89833 53.2825 9.07666C53.2825 8.45333 53.393 7.87249 53.614 7.33416C53.835 6.79016 54.1381 6.31416 54.5235 5.90616C54.9145 5.49249 55.3678 5.16949 55.8835 4.93716C56.3991 4.70483 56.9488 4.58866 57.5325 4.58866C58.1841 4.58866 58.782 4.72466 59.326 4.99666C59.87 5.26299 60.3346 5.63416 60.72 6.11016C61.1053 6.58049 61.3886 7.12449 61.57 7.74216C61.7513 8.35416 61.8051 9.00583 61.7315 9.69716H55.178C55.2516 10.0882 55.3933 10.4423 55.603 10.7597C55.8183 11.0713 56.0903 11.3178 56.419 11.4992C56.7533 11.6805 57.1245 11.774 57.5325 11.7797C57.9631 11.7797 58.3541 11.672 58.7055 11.4567C59.0625 11.2413 59.3543 10.9438 59.581 10.5642L61.3745 10.9807C61.0345 11.7343 60.5216 12.352 59.836 12.8337C59.1503 13.3097 58.3825 13.5477 57.5325 13.5477ZM55.1185 8.34566H59.9465C59.8898 7.93766 59.7453 7.56933 59.513 7.24066C59.2863 6.90633 59.0001 6.64283 58.6545 6.45016C58.3145 6.25183 57.9405 6.15266 57.5325 6.15266C57.1301 6.15266 56.7561 6.24899 56.4105 6.44166C56.0705 6.63433 55.7871 6.89783 55.5605 7.23216C55.3395 7.56083 55.1921 7.93199 55.1185 8.34566ZM70.7891 7.99716V13.3267H69.0211V8.43066C69.0211 8.05099 68.9276 7.70533 68.7406 7.39366C68.5593 7.08199 68.3128 6.83549 68.0011 6.65416C67.6951 6.46716 67.3495 6.37366 66.9641 6.37366C66.5901 6.37366 66.2473 6.46716 65.9356 6.65416C65.624 6.83549 65.3746 7.08199 65.1876 7.39366C65.0006 7.70533 64.9071 8.05099 64.9071 8.43066V13.3267H63.1391V4.82666H64.9071V5.72766C65.2018 5.37633 65.5645 5.09866 65.9951 4.89466C66.4258 4.69066 66.8905 4.58866 67.3891 4.58866C68.0181 4.58866 68.5905 4.74166 69.1061 5.04766C69.6218 5.35366 70.0298 5.76449 70.3301 6.28016C70.6361 6.79583 70.7891 7.36816 70.7891 7.99716ZM77.8703 10.9127L79.4513 11.7712C79.066 12.3095 78.5758 12.7402 77.9808 13.0632C77.3915 13.3862 76.7511 13.5477 76.0598 13.5477C75.2778 13.5477 74.5638 13.3465 73.9178 12.9442C73.2775 12.5418 72.7646 12.0035 72.3793 11.3292C71.9996 10.6492 71.8098 9.89833 71.8098 9.07666C71.8098 8.45333 71.9203 7.87249 72.1413 7.33416C72.3623 6.79016 72.6655 6.31416 73.0508 5.90616C73.4418 5.49249 73.8951 5.16949 74.4108 4.93716C74.9265 4.70483 75.4761 4.58866 76.0598 4.58866C76.7511 4.58866 77.3915 4.75016 77.9808 5.07316C78.5758 5.39616 79.066 5.82966 79.4513 6.37366L77.8703 7.23216C77.6323 6.94883 77.3546 6.73349 77.0373 6.58616C76.72 6.43316 76.3941 6.35666 76.0598 6.35666C75.5951 6.35666 75.173 6.48416 74.7933 6.73916C74.4193 6.98849 74.1218 7.31999 73.9008 7.73366C73.6855 8.14166 73.5778 8.58933 73.5778 9.07666C73.5778 9.55833 73.6883 10.006 73.9093 10.4197C74.1303 10.8277 74.4278 11.1563 74.8018 11.4057C75.1815 11.655 75.6008 11.7797 76.0598 11.7797C76.4111 11.7797 76.7455 11.7003 77.0628 11.5417C77.3801 11.383 77.6493 11.1733 77.8703 10.9127ZM84.51 13.5477C83.728 13.5477 83.014 13.3465 82.368 12.9442C81.7277 12.5418 81.2148 12.0035 80.8295 11.3292C80.4498 10.6492 80.26 9.89833 80.26 9.07666C80.26 8.45333 80.3705 7.87249 80.5915 7.33416C80.8125 6.79016 81.1157 6.31416 81.501 5.90616C81.892 5.49249 82.3453 5.16949 82.861 4.93716C83.3767 4.70483 83.9263 4.58866 84.51 4.58866C85.292 4.58866 86.0032 4.78983 86.6435 5.19216C87.2895 5.59449 87.8023 6.13566 88.182 6.81566C88.5673 7.49566 88.76 8.24933 88.76 9.07666C88.76 9.69433 88.6495 10.2723 88.4285 10.8107C88.2075 11.349 87.9015 11.825 87.5105 12.2387C87.1252 12.6467 86.6747 12.9668 86.159 13.1992C85.649 13.4315 85.0993 13.5477 84.51 13.5477ZM84.51 11.7797C84.9803 11.7797 85.4025 11.655 85.7765 11.4057C86.1505 11.1563 86.4452 10.8277 86.6605 10.4197C86.8815 10.006 86.992 9.55833 86.992 9.07666C86.992 8.58366 86.8787 8.13033 86.652 7.71666C86.431 7.30299 86.1335 6.97433 85.7595 6.73066C85.3855 6.48133 84.969 6.35666 84.51 6.35666C84.0453 6.35666 83.6232 6.48133 83.2435 6.73066C82.8695 6.97999 82.572 7.31149 82.351 7.72516C82.1357 8.13883 82.028 8.58933 82.028 9.07666C82.028 9.58099 82.1413 10.0372 82.368 10.4452C82.5947 10.8532 82.895 11.179 83.269 11.4227C83.6487 11.6607 84.0623 11.7797 84.51 11.7797ZM90.1333 13.3267V4.82666H91.9013V5.72766C92.1959 5.37633 92.5586 5.09866 92.9893 4.89466C93.4199 4.69066 93.8846 4.58866 94.3833 4.58866C94.7006 4.58866 95.0151 4.63116 95.3268 4.71616L94.6213 6.50116C94.4003 6.41616 94.1793 6.37366 93.9583 6.37366C93.5843 6.37366 93.2414 6.46716 92.9298 6.65416C92.6181 6.83549 92.3688 7.08199 92.1818 7.39366C91.9948 7.70533 91.9013 8.05099 91.9013 8.43066V13.3267H90.1333ZM99.6506 13.5477C98.8686 13.5477 98.1546 13.3465 97.5086 12.9442C96.8683 12.5418 96.3555 12.0035 95.9701 11.3292C95.5905 10.6492 95.4006 9.89833 95.4006 9.07666C95.4006 8.45333 95.5111 7.87249 95.7321 7.33416C95.9531 6.79016 96.2563 6.31416 96.6416 5.90616C97.0326 5.49249 97.486 5.16949 98.0016 4.93716C98.5173 4.70483 99.067 4.58866 99.6506 4.58866C100.302 4.58866 100.9 4.72466 101.444 4.99666C101.988 5.26299 102.453 5.63416 102.838 6.11016C103.223 6.58049 103.507 7.12449 103.688 7.74216C103.869 8.35416 103.923 9.00583 103.85 9.69716H97.2961C97.3698 10.0882 97.5115 10.4423 97.7211 10.7597C97.9365 11.0713 98.2085 11.3178 98.5371 11.4992C98.8715 11.6805 99.2426 11.774 99.6506 11.7797C100.081 11.7797 100.472 11.672 100.824 11.4567C101.181 11.2413 101.472 10.9438 101.699 10.5642L103.493 10.9807C103.153 11.7343 102.64 12.352 101.954 12.8337C101.268 13.3097 100.501 13.5477 99.6506 13.5477ZM97.2366 8.34566H102.065C102.008 7.93766 101.863 7.56933 101.631 7.24066C101.404 6.90633 101.118 6.64283 100.773 6.45016C100.433 6.25183 100.059 6.15266 99.6506 6.15266C99.2483 6.15266 98.8743 6.24899 98.5286 6.44166C98.1886 6.63433 97.9053 6.89783 97.6786 7.23216C97.4576 7.56083 97.3103 7.93199 97.2366 8.34566ZM110.077 13.5477C109.817 13.5477 109.596 13.457 109.414 13.2757C109.239 13.0943 109.151 12.8733 109.151 12.6127C109.151 12.3577 109.239 12.1395 109.414 11.9582C109.596 11.7768 109.817 11.6862 110.077 11.6862C110.338 11.6862 110.559 11.7768 110.74 11.9582C110.922 12.1395 111.012 12.3577 111.012 12.6127C111.012 12.8733 110.922 13.0943 110.74 13.2757C110.559 13.457 110.338 13.5477 110.077 13.5477ZM113.647 13.5477C113.386 13.5477 113.165 13.457 112.984 13.2757C112.808 13.0943 112.72 12.8733 112.72 12.6127C112.72 12.3577 112.808 12.1395 112.984 11.9582C113.165 11.7768 113.386 11.6862 113.647 11.6862C113.907 11.6862 114.128 11.7768 114.31 11.9582C114.491 12.1395 114.582 12.3577 114.582 12.6127C114.582 12.8733 114.491 13.0943 114.31 13.2757C114.128 13.457 113.907 13.5477 113.647 13.5477ZM117.216 13.5477C116.955 13.5477 116.734 13.457 116.553 13.2757C116.377 13.0943 116.289 12.8733 116.289 12.6127C116.289 12.3577 116.377 12.1395 116.553 11.9582C116.734 11.7768 116.955 11.6862 117.216 11.6862C117.477 11.6862 117.698 11.7768 117.879 11.9582C118.06 12.1395 118.151 12.3577 118.151 12.6127C118.151 12.8733 118.06 13.0943 117.879 13.2757C117.698 13.457 117.477 13.5477 117.216 13.5477Z" fill="#077169"/>
</svg>
