<svg width="41" height="42" viewBox="0 0 41 42" fill="none" xmlns="http://www.w3.org/2000/svg">
<circle cx="20.5" cy="21" r="20.5" fill="#2AD884"/>
<path fill-rule="evenodd" clip-rule="evenodd" d="M25 18.5C25 19.5609 24.5786 20.5783 23.8284 21.3284C23.0783 22.0786 22.0609 22.5 21 22.5C19.9391 22.5 18.9217 22.0786 18.1716 21.3284C17.4214 20.5783 17 19.5609 17 18.5C17 17.4391 17.4214 16.4217 18.1716 15.6716C18.9217 14.9214 19.9391 14.5 21 14.5C22.0609 14.5 23.0783 14.9214 23.8284 15.6716C24.5786 16.4217 25 17.4391 25 18.5ZM23 18.5C23 19.0304 22.7893 19.5391 22.4142 19.9142C22.0391 20.2893 21.5304 20.5 21 20.5C20.4696 20.5 19.9609 20.2893 19.5858 19.9142C19.2107 19.5391 19 19.0304 19 18.5C19 17.9696 19.2107 17.4609 19.5858 17.0858C19.9609 16.7107 20.4696 16.5 21 16.5C21.5304 16.5 22.0391 16.7107 22.4142 17.0858C22.7893 17.4609 23 17.9696 23 18.5Z" fill="white"/>
<path fill-rule="evenodd" clip-rule="evenodd" d="M21 10.5C14.925 10.5 10 15.425 10 21.5C10 27.575 14.925 32.5 21 32.5C27.075 32.5 32 27.575 32 21.5C32 15.425 27.075 10.5 21 10.5ZM12 21.5C12 23.59 12.713 25.514 13.908 27.042C14.7472 25.9399 15.8299 25.0467 17.0714 24.4323C18.313 23.8179 19.6797 23.4988 21.065 23.5C22.4323 23.4987 23.7819 23.8095 25.0109 24.4088C26.2399 25.008 27.316 25.8799 28.157 26.958C29.0234 25.8216 29.6068 24.4952 29.8589 23.0886C30.111 21.682 30.0244 20.2355 29.6065 18.869C29.1886 17.5024 28.4512 16.255 27.4555 15.23C26.4598 14.205 25.2343 13.4319 23.8804 12.9745C22.5265 12.5172 21.0832 12.3888 19.6699 12.6C18.2565 12.8112 16.9138 13.3559 15.7528 14.1891C14.5917 15.0222 13.6458 16.1199 12.9932 17.3912C12.3406 18.6625 12.0002 20.071 12 21.5ZM21 30.5C18.9339 30.5031 16.9303 29.7923 15.328 28.488C15.9729 27.5647 16.8313 26.8109 17.8302 26.2907C18.829 25.7705 19.9388 25.4992 21.065 25.5C22.1772 25.4991 23.2735 25.7636 24.2629 26.2714C25.2524 26.7793 26.1064 27.5159 26.754 28.42C25.1393 29.7667 23.1026 30.5029 21 30.5Z" fill="white"/>
</svg>
