<svg width="118" height="10" viewBox="0 0 118 10" fill="none" xmlns="http://www.w3.org/2000/svg">
<path d="M115.031 7.29726L114.964 7.29298L114.899 7.27401C114.303 7.09839 113.723 6.97757 113.117 6.85128C112.83 6.79158 112.538 6.73066 112.235 6.66216L112.235 6.66218L112.23 6.66109C109.726 6.07361 107.261 5.77195 104.758 5.46573C103.512 5.31318 102.256 5.1595 100.981 4.96879C74.8008 3.03441 49.0625 5.33294 23.2852 7.63497C16.4534 8.24508 9.61877 8.85544 2.77248 9.38731C2.37338 9.42498 2.07245 9.20784 1.89408 9.00968C1.71054 8.80578 1.5816 8.54695 1.49802 8.29636C1.34053 7.82416 1.27189 7.14704 1.55467 6.6263L1.65866 6.43479L1.86131 6.35466C3.19618 5.82681 4.62029 5.69687 5.98682 5.63237C6.29276 5.61793 6.59452 5.6067 6.89249 5.59562C7.95526 5.5561 8.9698 5.51837 9.95379 5.34276L9.9839 5.33739L10.0144 5.33511C16.3786 4.8585 22.7435 4.29938 29.1149 3.73969C53.9768 1.55571 78.9376 -0.63697 104.339 2.03071L104.339 2.03063L104.349 2.03179C107.683 2.43598 111.039 2.91905 114.418 3.74021L114.489 3.75755L114.555 3.7916C114.647 3.84002 114.809 3.87527 115.12 3.92492C115.139 3.92782 115.157 3.93078 115.176 3.9338C115.438 3.97517 115.782 4.02945 116.099 4.14735C116.456 4.27994 116.831 4.51047 117.078 4.9388C117.32 5.35857 117.391 5.88444 117.317 6.51236L117.311 6.55874L117.299 6.60372C117.206 6.9362 117.036 7.24372 116.73 7.42565C116.427 7.60574 116.111 7.58977 115.892 7.54942C115.704 7.51489 115.512 7.44655 115.376 7.39815C115.358 7.39191 115.341 7.386 115.326 7.38054C115.156 7.32095 115.076 7.30014 115.031 7.29726Z" fill="#2AD884" stroke="#2AD884" stroke-width="1.2"/>
</svg>
