<svg width="178" height="10" viewBox="0 0 178 10" fill="none" xmlns="http://www.w3.org/2000/svg">
<path d="M173.43 8.66601L173.383 8.66286L173.337 8.65253C172.444 8.45018 171.555 8.30235 170.646 8.15132C170.226 8.08137 169.801 8.01073 169.369 7.93368L169.366 7.93307C165.641 7.24591 161.909 6.8462 158.151 6.44366C156.287 6.244 154.416 6.04364 152.537 5.80717C113.141 2.88312 73.7555 4.22809 34.3591 5.57345C23.9246 5.92978 13.4894 6.28613 3.053 6.56321C2.26651 6.59466 1.76933 5.9914 1.58204 5.45038C1.39277 4.90366 1.41446 4.15254 1.9289 3.6345L2.05153 3.511L2.22122 3.4723C4.23672 3.01263 6.33964 2.93502 8.41075 2.92148C8.8634 2.91852 9.31365 2.91857 9.76148 2.91863C11.3828 2.91884 12.9724 2.91904 14.5291 2.77606L14.5491 2.77423L14.5691 2.77373C24.2934 2.53336 34.0267 2.21034 43.7661 1.88712C81.7411 0.626859 119.81 -0.636524 157.811 2.98369L157.811 2.98365L157.817 2.98435C162.797 3.51373 167.782 4.12135 172.747 5.06621L172.802 5.07664L172.854 5.09701C173.053 5.17508 173.369 5.22413 173.818 5.2836C173.844 5.28698 173.87 5.29038 173.896 5.29383C174.292 5.34602 174.761 5.40779 175.181 5.52603C175.619 5.64931 176.125 5.86509 176.441 6.314C176.781 6.79828 176.799 7.401 176.58 8.06128L176.561 8.12005L176.529 8.17359C176.321 8.53319 176.034 8.77553 175.686 8.89668C175.357 9.01129 175.026 8.99816 174.752 8.95722C174.512 8.92138 174.267 8.85541 174.063 8.8007C174.037 8.79372 174.012 8.78692 173.987 8.78039C173.75 8.71704 173.575 8.67578 173.43 8.66601Z" fill="#2AD884" stroke="#2AD884" stroke-width="1.2"/>
</svg>
