<svg width="35" height="36" viewBox="0 0 35 36" fill="none" xmlns="http://www.w3.org/2000/svg">
<circle cx="17.5" cy="17.5" r="17.5" transform="matrix(-1 0 0 1 35 0.659668)" fill="#2AD884"/>
<path d="M26.5303 17.3256C26.8232 17.6185 26.8232 18.0934 26.5303 18.3863L21.7574 23.1593C21.4645 23.4522 20.9896 23.4522 20.6967 23.1593C20.4038 22.8664 20.4038 22.3915 20.6967 22.0986L24.9393 17.856L20.6967 13.6133C20.4038 13.3204 20.4038 12.8455 20.6967 12.5527C20.9896 12.2598 21.4645 12.2598 21.7574 12.5527L26.5303 17.3256ZM9 17.106L26 17.106L26 18.606L9 18.606L9 17.106Z" fill="white"/>
</svg>
