<svg width="211" height="8" viewBox="0 0 211 8" fill="none" xmlns="http://www.w3.org/2000/svg">
<path d="M206.161 5.97123L206.128 5.97039L206.095 5.9666C205.034 5.84526 203.97 5.75966 202.892 5.67292C202.396 5.63305 201.897 5.59294 201.394 5.54901L201.392 5.54879C196.982 5.14887 192.539 4.93864 188.077 4.7275C185.868 4.62293 183.653 4.51814 181.436 4.38998C134.645 3.03394 87.6363 4.4952 40.6331 5.95628C28.1865 6.34318 15.7404 6.73006 3.29875 7.06462C2.59757 7.08903 1.92066 6.7993 1.60316 6.2207C1.43975 5.92292 1.38537 5.55725 1.5094 5.19742C1.63172 4.84253 1.8967 4.57999 2.21017 4.40904L2.33102 4.34315L2.46737 4.32445C4.85849 3.99659 7.3395 3.91499 9.80428 3.87595C10.3388 3.86749 10.8719 3.86102 11.4034 3.85456C13.3367 3.83109 15.2484 3.80788 17.1255 3.68996L17.1393 3.68909L17.1531 3.68873C28.7548 3.38847 40.3695 3.03362 51.9902 2.67858C97.289 1.2946 142.677 -0.092121 187.729 1.7417L187.729 1.74169L187.733 1.7419C193.635 2.01846 199.532 2.34625 205.383 2.89615L205.425 2.90008L205.466 2.90865C205.731 2.96381 206.14 2.99294 206.664 3.02513C206.693 3.02692 206.722 3.02871 206.752 3.03052C207.225 3.05943 207.762 3.09226 208.237 3.16144C208.492 3.19846 208.75 3.24867 208.985 3.32188C209.213 3.39258 209.471 3.49996 209.687 3.67886C209.921 3.87278 210.119 4.16593 210.136 4.55345C210.152 4.90875 210.009 5.22334 209.838 5.47545L209.786 5.55228L209.717 5.61416C209.107 6.16184 208.324 6.18635 207.744 6.14516C207.476 6.12619 207.203 6.08841 206.962 6.05505C206.931 6.05083 206.901 6.04668 206.872 6.04264C206.595 6.00477 206.365 5.97635 206.161 5.97123Z" fill="#FF9067" stroke="#FF9067" stroke-width="1.5"/>
</svg>
