<svg width="319" height="11" viewBox="0 0 319 11" fill="none" xmlns="http://www.w3.org/2000/svg">
<path d="M312.215 7.99991L312.182 7.99907L312.149 7.99528C310.53 7.81002 308.9 7.67897 307.257 7.5468C306.505 7.48628 305.75 7.42554 304.991 7.35926L304.989 7.35904C298.275 6.75019 291.504 6.42977 284.715 6.10844C281.355 5.94944 277.99 5.79021 274.626 5.5957C203.462 3.53308 131.964 5.75559 60.4884 7.97741C41.5635 8.5657 22.6401 9.15393 3.7249 9.66256C2.76173 9.69658 1.89416 9.29836 1.50092 8.58174C1.29971 8.21501 1.2362 7.7731 1.38519 7.34081C1.53249 6.91348 1.85654 6.58227 2.2686 6.35757L2.38943 6.29168L2.52581 6.27298C6.1368 5.77785 9.88941 5.6539 13.6353 5.59457C14.4446 5.58176 15.253 5.57195 16.0598 5.56216C19.0011 5.52647 21.921 5.49103 24.7861 5.31104L24.7999 5.31017L24.8137 5.30981C42.4591 4.85313 60.1231 4.31347 77.7949 3.77356C146.674 1.66919 215.673 -0.438851 284.161 2.34898L284.166 2.3492C293.139 2.76966 302.097 3.26775 310.986 4.10305L311.028 4.10697L311.069 4.11554C311.505 4.20644 312.159 4.25181 312.946 4.30015C312.989 4.30278 313.032 4.30542 313.075 4.30807C313.799 4.35232 314.6 4.40133 315.306 4.50407C315.682 4.5588 316.053 4.63154 316.384 4.73456C316.708 4.83505 317.046 4.97949 317.318 5.20514C317.609 5.4458 317.839 5.79539 317.859 6.25146C317.878 6.67531 317.708 7.07056 317.473 7.41789L317.421 7.49471L317.352 7.55659C316.549 8.27707 315.502 8.32643 314.639 8.26524C314.247 8.23738 313.845 8.18185 313.476 8.13093C313.43 8.12452 313.384 8.11819 313.339 8.11199C312.92 8.05459 312.549 8.00832 312.215 7.99991Z" fill="#FF9067" stroke="#FF9067" stroke-width="1.5"/>
</svg>
