<svg width="209" height="375" viewBox="0 0 209 375" fill="none" xmlns="http://www.w3.org/2000/svg">
<path d="M-33 294C48.1859 294 114 228.186 114 147C114 65.8141 48.1859 0 -33 0C-114.186 0 -180 65.8141 -180 147C-180 228.186 -114.186 294 -33 294Z" fill="#2AD884"/>
<path d="M59.8489 63.7866C56.4285 53.3765 49.3042 44.1566 36.0194 39.9435C25.3802 36.5805 12.4922 36.8261 0.662537 40.6047C-15.3057 45.687 -27.1165 56.3616 -31.7463 69.889C-32.2188 71.2871 -32.6534 72.8175 -33.0125 74.4612C-31.1983 73.8188 -29.422 73.1198 -27.6456 72.4207C-27.4377 72.3262 -27.211 72.2507 -27.0031 72.1562C-25.5102 71.5516 -24.0173 70.9659 -22.5244 70.3991C-19.5765 69.2845 -16.6096 68.2642 -13.4915 67.6219C-5.15783 65.9026 3.34596 65.9026 11.7553 64.939C26.0794 63.2953 40.3847 61.1793 54.671 62.9553C56.4096 63.1631 58.1481 63.4465 59.8678 63.7866H59.8489Z" fill="#1D1D1C" stroke="#1D1D1C" stroke-width="0.236268" stroke-miterlimit="10"/>
<path d="M164.56 175.541C164.56 175.541 129.165 -16.6203 -97.0542 95.5669C-97.0542 95.5669 -114.137 101.292 -116.235 135.923C-118.975 181.304 -86.4718 300.652 -47.052 346.411C-36.0916 359.145 -26.2083 364.113 -20.01 366.456C-10.2589 370.14 -1.07487 370.594 7.4856 370.065C64.4043 366.57 119.868 332.732 119.868 332.732C135.061 323.323 154.885 309.399 175.936 289.391C195.929 270.385 206.625 243.254 203.602 215.822C201.372 195.53 191.904 176.543 164.56 175.541Z" fill="white" stroke="#1D1D1C" stroke-width="8.42" stroke-miterlimit="10"/>
<path d="M195.439 173.917C194.816 171.971 193.68 168.644 191.053 167.246C187.746 165.489 183.796 167.114 177.523 169.683C174.631 170.874 171.079 172.347 166.77 175.389C160.496 179.81 155.696 183.23 155.583 187.027C155.356 194.943 175.444 208.735 188.237 200.706C197.44 194.924 197.724 181.057 195.305 173.481L195.439 173.917Z" fill="#1D1D1C" stroke="#1D1D1C" stroke-width="1.89014" stroke-miterlimit="10"/>
<path d="M145.226 213.644C147.38 178.843 120.395 142.021 89.8571 141.869C56.8246 141.699 37.9084 184.492 35.9242 188.97C31.181 199.701 19.4458 226.265 33.8455 250.07C46.3177 270.664 72.1503 278.977 93.5232 275.292C123.929 270.04 143.525 240.794 145.226 213.663V213.644Z" fill="#1D1D1C" stroke="#1D1D1C" stroke-width="0.236268" stroke-miterlimit="10"/>
<path d="M198.177 257.573C196.495 256.515 188.067 278.846 169.321 283.399C156.527 286.498 143.432 280.206 132.811 272.498C130.014 270.458 126.046 271.875 125.215 275.238V275.351C124.704 277.259 125.422 279.262 127.01 280.433C130.827 283.248 136.118 286.555 142.846 289.181C150.159 292.052 161.063 296.322 171.778 293.375C192.357 287.707 200.048 258.763 198.177 257.591V257.573Z" fill="#1D1D1C"/>
<path d="M106.414 205.483C113.511 205.483 119.264 199.731 119.264 192.636C119.264 185.541 113.511 179.789 106.414 179.789C99.3168 179.789 93.5636 185.541 93.5636 192.636C93.5636 199.731 99.3168 205.483 106.414 205.483Z" fill="white"/>
<path d="M186.038 172.348C181.71 171.29 177.099 172.688 174 175.975C176.06 175.408 180.123 174.615 185.093 175.635C189.723 176.58 192.954 178.677 194.655 179.943C194.447 179.414 192.142 173.84 186.057 172.348H186.038Z" fill="white"/>
</svg>
