<svg width="20" height="14" viewBox="0 0 20 14" fill="none" xmlns="http://www.w3.org/2000/svg">
<path d="M18.0063 0H2.34619C1.42729 0 0.67627 0.783572 0.67627 1.75V12.25C0.67627 13.2168 1.42777 14 2.34619 14H18.0063C18.9252 14 19.6763 13.2164 19.6763 12.25V1.75C19.6763 0.783339 18.9249 0 18.0063 0ZM17.7499 1.16667C17.21 1.73433 10.8682 8.40194 10.6076 8.67588C10.39 8.90462 9.96263 8.90478 9.74491 8.67588L2.60262 1.16667H17.7499ZM1.78955 12.0355V1.96447L6.57907 7L1.78955 12.0355ZM2.60262 12.8333L7.36501 7.82631L8.95645 9.49951C9.60861 10.1852 10.7442 10.1849 11.3961 9.49951L12.9876 7.82635L17.7499 12.8333H2.60262ZM18.563 12.0355L13.7735 7L18.563 1.96447V12.0355Z" fill="white"/>
</svg>
