<svg width="136" height="17" viewBox="0 0 136 17" fill="none" xmlns="http://www.w3.org/2000/svg">
<path d="M128.281 12.4514C118.38 18.0568 115.164 13.8068 115.164 13.8068C113.349 11.119 119.414 7.5122 119.414 7.5122C122.446 5.78922 124.376 5.51355 124.376 5.51355C127.155 5.00814 125.639 6.38652 125.203 6.75408C128.051 4.41084 124.628 5.00814 124.628 5.00814C123.043 5.30679 121.366 5.95003 119.689 6.75408C117.162 7.99463 115.187 9.62571 114.107 11.1879C111.787 12.1757 109.535 12.5892 109.535 12.5892C102.873 13.7838 101.196 10.9811 101.196 10.9811C99.496 7.97165 105.905 3.99733 105.905 3.99733C109.788 1.58516 111.58 1.14868 111.58 1.14868C117.438 -0.666186 111.396 4.15814 111.396 4.15814C108.616 6.47841 101.862 11.3027 101.862 11.3027C111.511 5.05409 113.9 2.0676 113.9 2.0676C114.451 1.42436 114.589 1.03382 114.474 0.827059C114.451 0.75814 114.382 0.712193 114.314 0.68922C113.303 -0.0459152 109.788 1.40139 107.996 2.22841C101.701 5.00814 97.6122 9.55679 98.8527 12.4744C100.116 15.4149 106.342 15.5527 112.774 12.796C112.981 12.7041 113.188 12.6122 113.372 12.5203C112.981 13.5311 113.004 14.473 113.509 15.2311C114.842 17.2298 119.138 17.3676 123.526 15.6217C131.612 12.3825 135.862 6.43246 135.862 6.43246C132.922 9.53382 128.281 12.4514 128.281 12.4514Z" fill="#1D1D1C"/>
<path d="M128.419 11.9919C118.518 17.5973 115.301 13.3473 115.301 13.3473C113.487 10.6595 119.551 7.05272 119.551 7.05272C122.584 5.32975 124.514 5.05407 124.514 5.05407C127.293 4.54867 125.777 5.92704 125.341 6.29461C128.189 3.95137 124.766 4.54866 124.766 4.54866C123.181 4.84731 121.504 5.49056 119.827 6.29461C117.3 7.53515 115.324 9.16624 114.245 10.7284C111.924 11.7162 109.673 12.1297 109.673 12.1297C103.011 13.3243 101.334 10.5216 101.334 10.5216C99.6338 7.51218 106.043 3.53785 106.043 3.53785C109.926 1.12569 111.718 0.689207 111.718 0.689207C117.576 -1.12566 111.534 3.69867 111.534 3.69867C108.754 6.01894 102 10.8433 102 10.8433C111.649 4.59462 114.038 1.60813 114.038 1.60813C114.589 0.964883 114.727 0.574343 114.612 0.367587C114.589 0.298668 114.52 0.25272 114.451 0.229747C113.441 -0.505388 109.926 0.941912 108.134 1.76894C101.839 4.54867 97.75 9.09731 98.9906 12.0149C100.254 14.9554 106.48 15.0933 112.912 12.3365C113.119 12.2446 113.326 12.1527 113.509 12.0608C113.119 13.0716 113.142 14.0135 113.647 14.7716C114.98 16.7703 119.276 16.9081 123.664 15.1622C131.75 11.923 136 5.97299 136 5.97299C133.059 9.07434 128.419 11.9919 128.419 11.9919Z" fill="#1D1D1C"/>
<path d="M49.9892 2.41219C50.2419 2.13652 50.6095 1.99868 51.046 1.99868C51.5284 1.99868 51.873 2.13652 52.1257 2.38922C52.3784 2.64192 52.4933 3.00949 52.4933 3.49193C52.4933 4.0203 52.3784 4.43381 52.1257 4.70949C51.873 5.00814 51.5284 5.14598 51.046 5.14598C50.5636 5.14598 50.196 5.00814 49.9663 4.75544C49.7365 4.50274 49.5987 4.11219 49.5987 3.58382C49.5987 3.07841 49.7365 2.68787 49.9892 2.41219ZM53.3892 5.62841C53.9636 5.10003 54.2392 4.38787 54.2392 3.46895C54.2392 2.59598 53.9636 1.92976 53.4122 1.44733C52.8609 0.987866 52.0798 0.735168 51.046 0.735168C50.0582 0.735168 49.2771 0.98787 48.7027 1.51625C48.1284 2.04463 47.8527 2.75679 47.8527 3.67571C47.8527 4.52571 48.1284 5.19193 48.6798 5.67436C49.2311 6.15679 49.9892 6.38651 50.9771 6.38651C52.0109 6.38651 52.8149 6.13381 53.3892 5.62841ZM57.869 0.850033C58.2136 0.850033 58.4892 0.873002 58.65 0.895975C58.8109 0.918948 58.9717 0.964894 59.1095 1.01084C59.3163 1.10273 59.4771 1.26354 59.6149 1.4703C59.7298 1.67706 59.7987 1.90679 59.7987 2.18246C59.7987 2.573 59.7068 2.9176 59.546 3.1703C59.3852 3.44597 59.1325 3.62976 58.8109 3.74462L59.7528 6.27165H57.9838L56.973 3.1703H57.019C57.4095 3.1703 57.7082 3.12436 57.8919 3.00949C58.0757 2.89463 58.1676 2.73381 58.1676 2.50408C58.1676 2.3203 58.0987 2.15949 57.9609 2.0676C57.823 1.97571 57.6163 1.92976 57.3176 1.92976C57.2487 1.92976 57.1798 1.92976 57.1109 1.92976C57.0419 1.92976 56.9501 1.95273 56.8811 1.95273L56.7433 4.50274C56.7433 4.73246 56.7203 4.98517 56.7203 5.28381C56.7203 5.60544 56.6973 5.92706 56.6973 6.24868H54.9744C55.0433 5.55949 55.1122 4.75544 55.1582 3.83652C55.2041 2.9176 55.2271 1.90679 55.25 0.804085C55.25 0.850031 57.869 0.850033 57.869 0.850033ZM62.3027 4.45679C62.3027 4.29598 62.3027 4.15814 62.3027 4.06625L62.3946 2.09057H63.2676C63.6122 2.09057 63.8649 2.20544 64.0487 2.41219C64.2095 2.61895 64.3014 2.96354 64.3014 3.40003C64.3014 3.69868 64.2555 3.97435 64.1406 4.20408C64.0487 4.43381 63.8879 4.6176 63.7041 4.75544C63.5663 4.84733 63.4284 4.91625 63.2446 4.96219C63.0838 5.00814 62.8081 5.03111 62.4636 5.03111H62.3027C62.2798 4.82435 62.2798 4.64057 62.3027 4.45679ZM62.9 6.29462C63.9109 6.29462 64.6919 6.04192 65.2203 5.53652C65.7487 5.03111 66.0244 4.31895 66.0244 3.35409C66.0244 2.87165 65.9555 2.45814 65.7946 2.09057C65.6338 1.723 65.4271 1.44733 65.1284 1.2176C64.9446 1.07976 64.7609 0.98787 64.5311 0.941924C64.3014 0.895978 63.9338 0.850033 63.4054 0.850033H60.7865C60.7636 1.86084 60.7406 2.87165 60.6946 3.88246C60.6487 4.80138 60.5798 5.60543 60.5109 6.29462H62.9ZM69.6311 0.850033C69.9757 0.850033 70.2514 0.873002 70.4122 0.895975C70.573 0.918948 70.7338 0.964894 70.8717 1.01084C71.0784 1.10273 71.2392 1.26354 71.3771 1.4703C71.4919 1.67706 71.5609 1.90679 71.5609 2.18246C71.5609 2.573 71.469 2.9176 71.3082 3.1703C71.1473 3.44597 70.8946 3.62976 70.573 3.74462L71.5379 6.27165H69.769L68.7581 3.1703H68.8041C69.1946 3.1703 69.4703 3.12436 69.6771 3.00949C69.8609 2.89463 69.9527 2.73381 69.9527 2.50408C69.9527 2.3203 69.8838 2.15949 69.746 2.0676C69.6082 1.97571 69.4014 1.92976 69.1027 1.92976C69.0338 1.92976 68.9649 1.92976 68.896 1.92976C68.8271 1.92976 68.7581 1.95273 68.6663 1.95273L68.5284 4.50274C68.5054 4.75544 68.5055 5.03111 68.5055 5.28381C68.5055 5.58246 68.4825 5.90409 68.4825 6.24868H66.7595C66.8284 5.55949 66.8973 4.75544 66.9433 3.83652C66.9892 2.9176 67.0122 1.90679 67.0352 0.804085C67.0352 0.850031 69.6311 0.850033 69.6311 0.850033ZM72.273 6.29462C72.3419 5.62841 72.4109 4.84733 72.4568 3.92841C72.5027 3.03246 72.5257 1.99868 72.5487 0.850033H76.8906L76.8217 2.11355C76.6149 2.11355 76.4081 2.09057 76.2473 2.09057C76.0865 2.09057 75.9717 2.09057 75.9027 2.09057H74.1798C74.1568 2.29733 74.1338 2.45814 74.1338 2.55003C74.1338 2.64192 74.1338 2.73381 74.1338 2.8257V2.9176H75.5352C75.696 2.9176 75.8568 2.9176 76.0176 2.9176C76.1554 2.9176 76.2933 2.89463 76.4082 2.89463L76.3392 4.18111C76.2473 4.18111 76.1555 4.15814 76.0406 4.15814C75.9487 4.15814 75.7879 4.15814 75.5811 4.15814H74.0419C74.019 4.27301 74.019 4.38787 73.996 4.47976C73.996 4.59463 73.973 4.68652 73.973 4.80138C73.973 4.8703 73.973 4.91625 73.973 4.93922C73.973 4.96219 73.973 5.00814 73.973 5.03111C74.1338 5.05408 74.2946 5.05409 74.4784 5.07706C74.6622 5.07706 74.8919 5.10003 75.1446 5.10003C75.4203 5.10003 75.673 5.10003 75.9257 5.07706C76.1554 5.07706 76.4082 5.05408 76.6379 5.03111L76.569 6.29462H72.273ZM81.9676 4.45679C81.9676 4.29598 81.9676 4.15814 81.9676 4.06625L82.0595 2.09057H82.9325C83.2771 2.09057 83.5298 2.20544 83.7136 2.41219C83.8744 2.61895 83.9663 2.96354 83.9663 3.40003C83.9663 3.69868 83.9203 3.97435 83.8284 4.20408C83.7365 4.43381 83.5757 4.6176 83.3919 4.75544C83.2541 4.84733 83.1163 4.91625 82.9325 4.96219C82.7717 5.00814 82.496 5.03111 82.1514 5.03111H81.9906C81.9676 4.82435 81.9676 4.64057 81.9676 4.45679ZM82.5879 6.29462C83.5987 6.29462 84.3798 6.04192 84.9082 5.53652C85.4365 5.03111 85.7122 4.31895 85.7122 3.35409C85.7122 2.87165 85.6433 2.45814 85.4825 2.09057C85.3217 1.723 85.1149 1.44733 84.8163 1.2176C84.6325 1.07976 84.4487 0.98787 84.219 0.941924C83.9892 0.895978 83.6217 0.850033 83.0933 0.850033H80.4744C80.4514 1.95274 80.4284 2.96354 80.3825 3.88246C80.3365 4.80138 80.2676 5.60543 80.1987 6.29462H82.5879ZM86.4244 6.29462C86.4933 5.62841 86.5622 4.84733 86.6082 3.92841C86.6541 3.03246 86.6771 1.99868 86.7 0.850033H91.0419L90.973 2.11355C90.7663 2.11355 90.5595 2.09057 90.3987 2.09057C90.2379 2.09057 90.123 2.09057 90.0541 2.09057H88.3311C88.3082 2.29733 88.2852 2.45814 88.2852 2.55003C88.2852 2.64192 88.2852 2.73381 88.2852 2.8257V2.9176H89.6865C89.8703 2.9176 90.0311 2.9176 90.169 2.9176C90.3068 2.9176 90.4446 2.89463 90.5595 2.89463L90.4906 4.18111C90.3987 4.18111 90.3068 4.15814 90.1919 4.15814C90.1001 4.15814 89.9392 4.15814 89.7325 4.15814H88.1933C88.1703 4.27301 88.1703 4.38787 88.1473 4.47976C88.1473 4.59463 88.1244 4.68652 88.1244 4.80138C88.1244 4.8703 88.1244 4.91625 88.1244 4.93922C88.1244 4.96219 88.1244 5.00814 88.1244 5.03111C88.2852 5.05408 88.446 5.05409 88.6298 5.07706C88.8136 5.07706 89.0433 5.10003 89.296 5.10003C89.5717 5.10003 89.8473 5.10003 90.1 5.07706C90.3298 5.07706 90.5825 5.05408 90.8122 5.03111L90.7433 6.29462H86.4244ZM91.5014 4.84733C91.823 4.96219 92.1217 5.03111 92.3744 5.07706C92.6271 5.12301 92.8798 5.14598 93.1325 5.14598C93.2933 5.14598 93.4311 5.123 93.523 5.05409C93.6149 4.98517 93.6838 4.91625 93.6838 4.80138C93.6838 4.64057 93.5 4.43381 93.1095 4.13517C93.0406 4.08922 92.9946 4.04327 92.9717 4.0203C92.0987 3.33111 91.6622 2.73381 91.6622 2.25138C91.6622 1.79192 91.846 1.42436 92.2365 1.17165C92.6271 0.918951 93.1555 0.78111 93.8446 0.78111C94.0284 0.78111 94.2352 0.804086 94.4649 0.827059C94.6946 0.850032 94.9703 0.895979 95.269 0.964898L95.3609 2.20544C95.0622 2.13652 94.8325 2.0676 94.6487 2.04462C94.4649 2.02165 94.3041 1.99868 94.1892 1.99868C93.9595 1.99868 93.7757 2.02165 93.6609 2.09057C93.546 2.15949 93.4771 2.25138 93.4771 2.36624C93.4771 2.50408 93.6838 2.75679 94.1203 3.07841C94.1892 3.14733 94.2582 3.19327 94.3041 3.21625C94.7636 3.58381 95.0852 3.88246 95.246 4.11219C95.4068 4.36489 95.4987 4.6176 95.4987 4.89327C95.4987 5.39868 95.3149 5.78922 94.9244 6.04192C94.5338 6.29462 93.9825 6.43246 93.2244 6.43246C92.9946 6.43246 92.7649 6.40949 92.4892 6.38651C92.2136 6.36354 91.9149 6.3176 91.6392 6.24868L91.5014 4.84733ZM1.07977 13.3244C1.14869 12.6581 1.21761 11.8771 1.26356 10.9581C1.3095 10.0622 1.33248 9.02841 1.35545 7.87976H5.69734L5.62842 9.14327C5.44464 9.14327 5.23788 9.1203 5.0541 9.1203C4.89329 9.1203 4.77842 9.1203 4.7095 9.1203H2.98653C2.96356 9.28111 2.96356 9.41895 2.94058 9.57976C2.94058 9.67166 2.94058 9.76354 2.94058 9.85544V9.94733H4.36491C4.54869 9.94733 4.7095 9.94733 4.84734 9.94733C4.98518 9.94733 5.12302 9.92436 5.23788 9.92436L5.16896 11.2108C5.07707 11.2108 4.98518 11.1879 4.89329 11.1879C4.80139 11.1879 4.64058 11.1879 4.43383 11.1879H2.89464C2.87166 11.3027 2.87167 11.4176 2.84869 11.5095C2.84869 11.6244 2.82572 11.7162 2.82572 11.8311C2.82572 11.9 2.82572 11.946 2.82572 11.969C2.82572 11.9919 2.82572 12.0379 2.82572 12.0608C2.98653 12.0838 3.14734 12.0838 3.33112 12.1068C3.51491 12.1068 3.74464 12.1298 3.99734 12.1298C4.27302 12.1298 4.52572 12.1298 4.77842 12.1068C5.00815 12.1068 5.26085 12.0838 5.49058 12.0608L5.42166 13.3244C5.44464 13.3244 1.07977 13.3244 1.07977 13.3244ZM9.48788 13.3244C9.44194 13.2095 9.39599 13.1176 9.35004 13.0257C9.3041 12.9338 9.25815 12.8649 9.23518 12.796L8.54599 11.5784L7.83383 12.6811C7.74194 12.819 7.67302 12.9338 7.62707 13.0257C7.58112 13.1176 7.53518 13.2095 7.48923 13.3014H5.62842L7.71896 10.4298L6.11085 7.87976H8.04058C8.06356 7.97165 8.1095 8.04057 8.13248 8.10949C8.15545 8.17841 8.2014 8.22436 8.22437 8.29328L8.77572 9.373L9.32707 8.47706C9.35004 8.43111 9.39599 8.36219 9.44193 8.29328C9.48788 8.22436 9.5568 8.08652 9.64869 7.90273H11.4636L9.62572 10.4757L11.4636 13.3244H9.48788ZM14.519 7.87976C14.8865 7.87976 15.1622 7.90273 15.323 7.92571C15.4838 7.94868 15.6217 7.99463 15.7365 8.06355C15.9433 8.15544 16.1041 8.33922 16.2419 8.56895C16.3568 8.79868 16.4257 9.07435 16.4257 9.373C16.4257 9.94733 16.2419 10.4068 15.9203 10.7744C15.5757 11.1189 15.1163 11.3027 14.5649 11.3027C14.519 11.3027 14.473 11.3027 14.4271 11.3027C14.3811 11.3027 14.3122 11.3027 14.2433 11.2798L13.8757 10.246C14.1973 10.246 14.4271 10.2 14.5879 10.0852C14.7487 9.9703 14.8176 9.80949 14.8176 9.57976C14.8176 9.39598 14.7487 9.25814 14.6568 9.14327C14.5419 9.02841 14.3811 8.98247 14.1744 8.98247C14.0825 8.98247 13.9676 8.98247 13.7838 9.00544H13.7609L13.646 11.5784C13.646 11.8541 13.623 12.1527 13.623 12.4284C13.623 12.7271 13.6 13.0257 13.6 13.3244H11.8771C11.946 12.6352 12.0149 11.8311 12.0609 10.9122C12.1068 9.99328 12.1298 8.98246 12.1527 7.87976H14.519ZM16.9771 13.3244C17.046 12.6581 17.1149 11.8771 17.1609 10.9581C17.2068 10.0622 17.2298 9.02841 17.2527 7.87976H21.5946L21.5257 9.14327C21.3419 9.14327 21.1352 9.1203 20.9514 9.1203C20.7906 9.1203 20.6757 9.1203 20.6068 9.1203H18.8838C18.8609 9.28111 18.8609 9.41895 18.8379 9.57976C18.8379 9.67166 18.8379 9.76354 18.8379 9.85544V9.94733H20.2392C20.423 9.94733 20.5838 9.94733 20.7217 9.94733C20.8595 9.94733 20.9973 9.92436 21.1122 9.92436L21.0433 11.2108C20.9514 11.2108 20.8595 11.1879 20.7446 11.1879C20.5838 11.1879 20.446 11.1879 20.2852 11.1879H18.746C18.723 11.3027 18.723 11.4176 18.723 11.5095C18.7 11.6703 18.7 11.8311 18.7 11.969C18.7 11.9919 18.7 12.0379 18.7 12.0608C18.8609 12.0838 19.0217 12.0838 19.2054 12.1068C19.3892 12.1068 19.619 12.1298 19.8717 12.1298C20.1473 12.1298 20.4 12.1298 20.6527 12.1068C20.9054 12.1068 21.1352 12.0838 21.3649 12.0608V13.3244H16.9771ZM25.0865 7.87976C25.4311 7.87976 25.7068 7.90273 25.8676 7.92571C26.0284 7.94868 26.1892 7.99463 26.3271 8.04057C26.5338 8.13246 26.6946 8.29327 26.8325 8.50003C26.9473 8.70679 27.0163 8.95949 27.0163 9.2122C27.0163 9.60274 26.9244 9.94733 26.7636 10.2C26.6027 10.4757 26.35 10.6595 26.0514 10.7744L26.9933 13.3014H25.2244L24.2136 10.2H24.2595C24.65 10.2 24.9487 10.1541 25.1325 10.0392C25.3163 9.92436 25.4082 9.76355 25.4082 9.53382C25.4082 9.35003 25.3392 9.18922 25.2014 9.09733C25.0636 9.00544 24.8568 8.95949 24.5582 8.95949C24.4892 8.95949 24.4203 8.95949 24.3284 8.95949C24.2595 8.95949 24.1906 8.98247 24.0987 8.98247L23.9609 11.5554C23.9609 11.7852 23.9379 12.0379 23.9379 12.3365C23.9379 12.6581 23.9149 12.9798 23.9149 13.3014H22.1919C22.2609 12.6122 22.3298 11.8081 22.3757 10.8892C22.4217 9.9703 22.4446 8.95949 22.4676 7.85679H25.0865V7.87976ZM32.2771 7.87976L32.2082 9.1203C31.9784 9.09733 31.7487 9.07436 31.519 9.07436C31.2892 9.07436 31.0825 9.05138 30.8527 9.05138H30.669L30.5082 11.5325C30.5082 11.6933 30.4852 11.8541 30.4852 12.0379C30.4852 12.2217 30.4852 12.3825 30.4852 12.5663C30.4852 12.773 30.4852 12.9108 30.4852 13.0257C30.4852 13.1406 30.4852 13.2325 30.4852 13.3244H28.7392C28.7852 12.8879 28.8311 12.2906 28.8771 11.5784C28.923 10.8662 28.946 10.0162 28.9919 9.07436C28.6473 9.07436 28.3487 9.09733 28.096 9.09733C27.8203 9.1203 27.6136 9.1203 27.4068 9.14327L27.4757 7.87976H32.2771ZM32.5298 11.8771C32.8514 11.9919 33.15 12.0608 33.4027 12.1068C33.6554 12.1527 33.9081 12.1757 34.1609 12.1757C34.3217 12.1757 34.4595 12.1527 34.5514 12.0838C34.6433 12.0149 34.7122 11.946 34.7122 11.8311C34.7122 11.6703 34.5284 11.4635 34.1379 11.1649C34.069 11.119 34.023 11.073 34 11.05C34 11.05 34 11.05 33.9771 11.05C33.1041 10.3608 32.6676 9.76354 32.6676 9.28111C32.6676 8.82165 32.8514 8.45409 33.2419 8.20139C33.6325 7.94868 34.1609 7.81084 34.85 7.81084C35.0338 7.81084 35.2406 7.83382 35.4703 7.85679C35.7 7.87976 35.9757 7.9257 36.2744 7.99462L36.3663 9.23517C36.0676 9.16625 35.8379 9.09733 35.6541 9.07436C35.4703 9.05138 35.3095 9.02841 35.1946 9.02841C34.9649 9.02841 34.7811 9.05138 34.6663 9.1203C34.5514 9.18922 34.4825 9.28111 34.4825 9.39598C34.4825 9.53381 34.6892 9.78652 35.1257 10.1081C35.1946 10.1541 35.2636 10.2 35.3095 10.246C35.769 10.6135 36.0906 10.9122 36.2514 11.1419C36.4122 11.3946 36.5041 11.6473 36.5041 11.923C36.5041 12.4284 36.3203 12.8189 35.9298 13.0717C35.5392 13.3244 34.9879 13.4622 34.2298 13.4622C34 13.4622 33.7703 13.4392 33.5176 13.4162C33.2419 13.3933 32.9433 13.3473 32.6676 13.2784C32.6446 13.2554 32.5298 11.8771 32.5298 11.8771ZM39.169 11.7622H37.2163L37.2852 10.5446H39.2379L39.169 11.7622ZM44.8433 9.18922C44.6365 9.1203 44.4068 9.07435 44.2 9.02841C43.9933 8.98246 43.7636 8.98247 43.5568 8.98247C42.9825 8.98247 42.546 9.14328 42.2244 9.44193C41.9028 9.74057 41.7419 10.1771 41.7419 10.7054C41.7419 11.2108 41.8798 11.5784 42.1555 11.8311C42.4311 12.0838 42.8676 12.1987 43.4649 12.1987C43.6717 12.1987 43.8784 12.1757 44.1082 12.1527C44.3379 12.1298 44.5446 12.0838 44.7744 12.0149L44.5906 13.2784C44.3379 13.3244 44.1082 13.3703 43.8554 13.3933C43.6027 13.4162 43.35 13.4392 43.0973 13.4392C42.0865 13.4392 41.3284 13.2095 40.823 12.75C40.2946 12.2906 40.0419 11.6244 40.0419 10.7284C40.0419 9.78652 40.3176 9.07436 40.8919 8.54598C41.4663 8.0176 42.2473 7.76489 43.2811 7.76489C43.5338 7.76489 43.7865 7.78787 44.0392 7.81084C44.2919 7.83382 44.5446 7.87976 44.8203 7.94868L44.8433 9.18922ZM47.6 9.44193C47.8527 9.16625 48.2203 9.02841 48.6568 9.02841C49.1392 9.02841 49.4838 9.16625 49.7365 9.41895C49.9892 9.67165 50.1041 10.0392 50.1041 10.5217C50.1041 11.05 49.9663 11.4406 49.7136 11.7392C49.4609 12.0149 49.0933 12.1757 48.6568 12.1757C48.1744 12.1757 47.8068 12.0379 47.5771 11.7852C47.3244 11.5325 47.2095 11.119 47.2095 10.6135C47.2325 10.1081 47.3473 9.7176 47.6 9.44193ZM51 12.6581C51.5744 12.1298 51.85 11.4176 51.85 10.4987C51.85 9.62571 51.5744 8.95949 51.023 8.47706C50.4717 8.0176 49.6906 7.76489 48.6568 7.76489C47.669 7.76489 46.8879 8.0176 46.3136 8.54598C45.7392 9.07436 45.4636 9.78652 45.4636 10.7054C45.4636 11.5554 45.7392 12.2217 46.2906 12.7041C46.8419 13.1865 47.6 13.4162 48.5879 13.4162C49.6217 13.4162 50.4257 13.1635 51 12.6581ZM55.2271 7.87976C55.2271 7.94868 55.25 8.04057 55.273 8.13246C55.296 8.22435 55.296 8.31625 55.319 8.43112L55.8933 11.3717L56.7663 8.6149C56.8122 8.45409 56.8582 8.33922 56.8811 8.22435C56.9041 8.10949 56.95 7.99462 56.973 7.90273H59.2703C59.2473 8.17841 59.2473 8.50003 59.2244 8.8676C59.2244 8.93652 59.2244 9.00543 59.2244 9.02841L59.1095 12.1298C59.1095 12.1527 59.1095 12.1987 59.1095 12.2906C59.1095 12.3595 59.1095 12.4054 59.1095 12.4744C59.1095 12.5892 59.1095 12.7271 59.1095 12.8649C59.1095 13.0027 59.1095 13.1635 59.1325 13.3473H57.5244C57.5473 13.2095 57.5473 13.0487 57.5703 12.9108C57.5933 12.75 57.5933 12.5892 57.5933 12.4284L57.6852 10.5446C57.6852 10.4987 57.6852 10.3379 57.7082 10.0392C57.7082 9.74057 57.7311 9.4649 57.7311 9.23517L56.5595 12.7041C56.5136 12.8649 56.4676 13.0027 56.4446 13.0946C56.4217 13.1865 56.3987 13.2784 56.3757 13.3703H55.0433C55.0433 13.3014 55.0203 13.2095 54.9973 13.0946C54.9744 12.9798 54.9514 12.8879 54.9284 12.773L54.1933 9.25814L53.9636 11.9C53.9406 12.0608 53.9406 12.2446 53.9176 12.4744C53.8946 12.7041 53.8946 13.0027 53.8717 13.3473H52.4473C52.5392 12.6811 52.6311 11.9 52.723 10.9811C52.8149 10.0622 52.8838 9.05138 52.9298 7.92571H55.2271V7.87976ZM62.7852 7.87976C63.1527 7.87976 63.4284 7.90273 63.5892 7.92571C63.75 7.94868 63.8879 7.99463 64.0027 8.06355C64.2095 8.15544 64.3703 8.33922 64.5081 8.56895C64.623 8.79868 64.6919 9.07435 64.6919 9.373C64.6919 9.94733 64.5311 10.4068 64.1865 10.7744C63.8419 11.1189 63.3825 11.3027 62.8311 11.3027C62.7852 11.3027 62.7392 11.3027 62.6933 11.3027C62.6473 11.3027 62.5784 11.3027 62.5095 11.2798L62.1419 10.246C62.4636 10.246 62.6933 10.2 62.8541 10.0852C63.0149 9.9703 63.0838 9.80949 63.0838 9.57976C63.0838 9.39598 63.0149 9.25814 62.923 9.14327C62.8082 9.02841 62.6473 8.98247 62.4406 8.98247C62.3487 8.98247 62.2338 8.98247 62.05 9.00544H62.0271L61.9122 11.5784C61.9122 11.8541 61.8892 12.1527 61.8892 12.4284C61.8892 12.7271 61.8663 13.0257 61.8663 13.3244H60.1433C60.2122 12.6352 60.2811 11.8311 60.3271 10.9122C60.373 9.99328 60.396 8.98246 60.419 7.87976C60.396 7.87976 62.7852 7.87976 62.7852 7.87976ZM69.8149 7.87976L69.746 9.1203C69.5163 9.09733 69.2865 9.07436 69.0568 9.07436C68.8271 9.07436 68.6203 9.05138 68.3906 9.05138H68.2298L68.0919 11.5325C68.0919 11.6933 68.069 11.8541 68.069 12.0379C68.069 12.1987 68.069 12.3825 68.069 12.5663C68.069 12.773 68.069 12.9108 68.069 13.0257C68.069 13.1406 68.069 13.2325 68.069 13.3244H66.323C66.369 12.8879 66.4149 12.2906 66.4609 11.5784C66.5068 10.8662 66.5298 10.0162 66.5757 9.07436C66.2311 9.07436 65.9325 9.09733 65.6798 9.09733C65.4271 9.1203 65.1973 9.1203 64.9906 9.14327L65.0595 7.87976H69.8149ZM73.5365 10.3838H72.3649L73.0771 8.66085L73.5365 10.3838ZM69.4703 13.3244H71.2622C71.2852 13.2325 71.3311 13.1176 71.3541 13.0027C71.4 12.8879 71.423 12.796 71.469 12.7041L71.9284 11.6244H73.8582L74.1568 12.8419C74.1798 12.9338 74.2028 13.0257 74.2257 13.0946C74.2487 13.1635 74.2487 13.2554 74.2487 13.3014H76.0176L74.4325 8.45408C74.4095 8.36219 74.3865 8.2703 74.3636 8.17841C74.3406 8.08652 74.3176 7.99462 74.3176 7.87976H72.1811C72.1122 8.06354 72.0663 8.20138 72.0203 8.29328C71.9744 8.38517 71.9514 8.47706 71.9054 8.52301L69.4703 13.3244ZM78.223 9.44193C78.223 9.35003 78.246 9.25814 78.246 9.14327C78.246 9.02841 78.246 8.95949 78.269 8.93652H78.7514C79.0271 8.93652 79.2109 8.98246 79.3027 9.05138C79.3946 9.1203 79.4636 9.25814 79.4636 9.4649C79.4636 9.67166 79.3946 9.80949 79.2568 9.90138C79.119 9.99328 78.8892 10.0392 78.5906 10.0392H78.223V9.44193ZM78.1082 11.9919C78.1082 11.8311 78.1082 11.7163 78.1082 11.6473C78.1082 11.5784 78.1082 11.5095 78.1082 11.4406L78.1311 11.0041H78.8663C79.096 11.0041 79.2798 11.05 79.3946 11.1649C79.5095 11.2568 79.5784 11.4176 79.5784 11.6244C79.5784 11.8541 79.5095 12.0149 79.3717 12.1298C79.2338 12.2446 79.0271 12.2906 78.7284 12.2906H78.1082V11.9919ZM76.6379 7.87976C76.6379 8.95949 76.5919 9.94733 76.546 10.8662C76.5 11.7852 76.4311 12.5892 76.3392 13.3014H79.1879C79.8311 13.3014 80.3136 13.1635 80.6582 12.9108C81.0028 12.6352 81.1636 12.2676 81.1636 11.7622C81.1636 11.3717 81.0487 11.073 80.819 10.8433C80.5892 10.6365 80.2446 10.4987 79.7852 10.4527C80.1987 10.3838 80.4973 10.246 80.7271 9.99327C80.9568 9.76355 81.0717 9.4649 81.0717 9.07436C81.0717 8.63787 80.9338 8.33922 80.6582 8.13246C80.3825 7.92571 79.946 7.83382 79.3257 7.83382H76.6379V7.87976ZM83.9203 7.87976C83.8514 8.43111 83.8055 9.00543 83.7595 9.60273C83.7136 10.223 83.7136 10.8203 83.7136 11.4406C83.7136 11.5784 83.7136 11.7622 83.7365 12.0149C83.7365 12.0379 83.7365 12.0379 83.7365 12.0379C84.0122 12.0608 84.2879 12.0838 84.5636 12.0838C84.7933 12.0838 85.023 12.0838 85.2298 12.0838C85.4595 12.0838 85.7122 12.0608 85.9879 12.0379L85.919 13.3244H81.8987C81.9676 12.6581 82.0365 11.8771 82.0825 10.9581C82.1284 10.0622 82.1514 9.02841 82.1744 7.87976H83.9203ZM86.4244 13.3244C86.4933 12.6581 86.5622 11.8771 86.6082 10.9581C86.6541 10.0622 86.6771 9.02841 86.7 7.87976H91.0419L90.973 9.14327C90.7892 9.14327 90.5825 9.1203 90.3987 9.1203C90.2379 9.1203 90.123 9.1203 90.0541 9.1203H88.3311C88.3082 9.28111 88.3082 9.41895 88.2852 9.57976C88.2852 9.67166 88.2852 9.76354 88.2852 9.85544V9.94733H89.6865C89.8703 9.94733 90.0311 9.94733 90.169 9.94733C90.3068 9.94733 90.4446 9.92436 90.5595 9.92436L90.4906 11.2108C90.3987 11.2108 90.3068 11.1879 90.2149 11.1879C90.123 11.1879 89.9622 11.1879 89.7555 11.1879H88.2163C88.1933 11.3027 88.1933 11.4176 88.1703 11.5095C88.1703 11.6244 88.1703 11.7162 88.1703 11.8311C88.1703 11.9 88.1703 11.946 88.1703 11.969C88.1703 11.9919 88.1703 12.0379 88.1703 12.0608C88.3311 12.0838 88.4919 12.0838 88.6757 12.1068C88.8595 12.1068 89.0892 12.1298 89.3419 12.1298C89.6176 12.1298 89.8703 12.1298 90.146 12.1068C90.3987 12.1068 90.6284 12.0838 90.8582 12.0608L90.7892 13.3244H86.4244ZM91.5014 11.8771C91.823 11.9919 92.1217 12.0608 92.3744 12.1068C92.6271 12.1527 92.8798 12.1757 93.1325 12.1757C93.2933 12.1757 93.4311 12.1527 93.523 12.0838C93.6149 12.0149 93.6838 11.946 93.6838 11.8311C93.6838 11.6703 93.4771 11.4635 93.1095 11.1649C93.0406 11.119 92.9946 11.073 92.9717 11.05C92.9717 11.05 92.9717 11.05 92.9487 11.05C92.0757 10.3608 91.6392 9.76354 91.6392 9.28111C91.6392 8.82165 91.823 8.45409 92.2136 8.20139C92.6041 7.94868 93.1325 7.81084 93.8217 7.81084C94.0054 7.81084 94.2122 7.83382 94.4419 7.85679C94.6717 7.87976 94.9473 7.9257 95.246 7.99462L95.3379 9.23517C95.0392 9.16625 94.8095 9.09733 94.6257 9.07436C94.4419 9.05138 94.2811 9.02841 94.1663 9.02841C93.9365 9.02841 93.7528 9.05138 93.6379 9.1203C93.523 9.18922 93.4541 9.28111 93.4541 9.39598C93.4541 9.53381 93.6609 9.78652 94.0973 10.1081C94.1663 10.1541 94.2352 10.2 94.2811 10.246C94.7406 10.6135 95.0622 10.9122 95.223 11.1419C95.3838 11.3946 95.4757 11.6473 95.4757 11.923C95.4757 12.4284 95.2919 12.8189 94.9014 13.0717C94.5109 13.3244 93.9595 13.4622 93.2014 13.4622C92.9717 13.4622 92.7419 13.4392 92.4663 13.4162C92.1906 13.3933 91.8919 13.3473 91.6163 13.2784L91.5014 11.8771Z" fill="#1D1D1C"/>
</svg>
