<svg width="223" height="78" viewBox="0 0 223 78" fill="none" xmlns="http://www.w3.org/2000/svg">
<path d="M163.655 8.14664C171.022 9.32865 178.369 10.6175 185.715 11.9061C190.357 12.7204 194.998 13.5346 199.644 14.3218L199.813 13.336C194.802 12.4732 189.794 11.5653 184.782 10.6567C172.198 8.37559 159.59 6.08987 146.852 4.50098C121.621 0.170474 95.6697 -0.0708902 70.492 3.79107L70.4844 3.79223L70.4769 3.79361L58.7339 5.9628L58.7197 5.96542L58.7057 5.96885C57.8152 6.18709 56.921 6.40199 56.0252 6.61726C52.3898 7.49095 48.729 8.37071 45.1865 9.50393C33.1109 12.8848 21.1228 17.363 11.7703 24.6527C7.2361 28.1564 3.41226 32.5358 1.94947 37.6678C-0.224021 45.2108 2.91242 53.5183 9.78132 58.8924C19.4325 66.4542 32.9266 69.1951 45.3415 71.702L45.3486 71.7034C49.8885 72.5515 54.4887 73.1789 59.0727 73.8042C61.0675 74.0763 63.0591 74.3479 65.0414 74.6371L65.0579 74.6396L65.0745 74.6409C67.3347 74.8182 69.5992 75.024 71.8674 75.2301C76.5966 75.6599 81.3415 76.0911 86.0952 76.2685M163.655 8.14664L86.1186 75.769M163.655 8.14664C184.532 13.5053 205.744 22.2248 218.343 36.7577L218.353 36.7688L218.362 36.7804C219.603 38.3934 220.91 40.1209 221.596 42.0508L221.597 42.0508L221.601 42.0637C222.565 45.027 222.161 48.2278 220.668 50.9705M163.655 8.14664L154.652 74.613M86.0952 76.2685C86.0968 76.2686 86.0985 76.2686 86.1001 76.2687L86.1186 75.769M86.0952 76.2685C86.0936 76.2684 86.092 76.2683 86.0904 76.2683L86.1186 75.769M86.0952 76.2685C96.5166 76.859 106.942 77.0045 117.364 77.0677L117.377 77.0677L117.377 77.0676C121.046 76.9926 124.718 76.8924 128.387 76.7922C130.7 76.7291 133.013 76.6659 135.324 76.6092L135.336 76.6089L135.347 76.6081C141.788 76.1578 148.239 75.6934 154.664 75.1152L154.661 74.9816M86.1186 75.769C96.5283 76.359 106.945 76.5045 117.367 76.5677C121.035 76.4927 124.703 76.3926 128.37 76.2925C130.684 76.2293 132.998 76.1662 135.312 76.1093C141.739 75.66 148.171 75.1969 154.578 74.621L154.597 75.1167L154.6 75.1168L154.619 74.6307L154.626 74.6897L154.661 74.9816M154.661 74.9816L154.652 74.613M154.661 74.9816L154.677 75.1136C164.32 73.9592 178.626 71.901 191.595 68.1651C198.079 66.2972 204.247 64.005 209.336 61.1866C214.419 58.3718 218.474 55.0068 220.668 50.9705M107.712 2.44169C103.65 2.38156 99.588 2.42561 95.5349 2.57734C95.5332 2.5774 95.5314 2.57747 95.5297 2.57753C92.385 2.69533 89.2459 2.87795 86.1171 3.12704C86.114 3.12728 86.1111 3.12752 86.108 3.12776C77.6006 3.80538 69.1692 4.97438 60.9074 6.6676C59.7942 6.86055 58.6837 7.062 57.5766 7.2725C58.0277 7.16356 58.4789 7.05407 58.93 6.94355L121.408 2.53422C122.886 2.63996 124.362 2.75902 125.836 2.89126C125.546 2.87656 125.256 2.86199 124.966 2.84742C123.436 2.77063 121.91 2.69401 120.394 2.59974C120.392 2.59962 120.39 2.59949 120.388 2.59937C120.296 2.59367 120.205 2.58792 120.113 2.58209L120.101 2.58132L120.089 2.58114L110.22 2.43278L110.216 2.43271L110.216 2.43273C109.654 2.42919 109.092 2.42981 108.529 2.43374C108.526 2.43376 108.524 2.43378 108.521 2.4338C108.252 2.4357 107.982 2.43836 107.712 2.44169ZM107.712 2.44169C105.72 2.46631 103.724 2.52751 101.733 2.58856C100.087 2.63903 98.4438 2.68941 96.8091 2.71892L96.7966 2.71914L96.7841 2.71999C96.3716 2.74808 95.9589 2.77565 95.546 2.8029C95.5453 2.80295 95.5446 2.80299 95.544 2.80304C94.7552 2.85509 93.9658 2.90594 93.1758 2.95682C90.8313 3.10783 88.4828 3.2591 86.1371 3.44275C86.1364 3.44281 86.1357 3.44286 86.1349 3.44292C83.653 3.63726 81.1742 3.86785 78.7067 4.17276L78.7176 4.24124C81.1944 3.98194 83.6715 3.74988 86.1432 3.53934L95.553 2.94529C95.9671 2.925 96.3814 2.90658 96.7957 2.88974C96.8012 2.88952 96.8067 2.8893 96.8122 2.88907C99.1111 2.79586 101.413 2.75118 103.716 2.70645C105.318 2.67534 106.922 2.64421 108.526 2.5967C109.089 2.60733 109.652 2.6171 110.214 2.62635C110.215 2.62636 110.216 2.62638 110.217 2.62639C111.089 2.64072 111.961 2.65381 112.833 2.6669C113.976 2.68404 115.119 2.70119 116.262 2.72114C114.249 2.61957 112.234 2.54305 110.219 2.49201C110.218 2.49198 110.217 2.49195 110.215 2.49191C109.653 2.47768 109.091 2.46544 108.529 2.45518C108.526 2.45514 108.524 2.4551 108.522 2.45506C108.252 2.45014 107.982 2.44569 107.712 2.44169ZM154.652 74.613C173.935 72.3029 211.717 66.3901 220.228 50.7317C221.663 48.0978 222.043 45.0389 221.125 42.2184C220.469 40.3749 219.214 38.7079 217.965 37.0852L154.652 74.613ZM220.668 50.9705C220.668 50.9707 220.667 50.9708 220.667 50.9709L220.228 50.7317L220.668 50.9705ZM45.1229 10.0411C45.121 10.0416 45.119 10.0422 45.117 10.0428L44.9954 9.61195C45.0612 9.59242 45.127 9.57293 45.1928 9.55347L45.1944 9.55871C45.1325 9.57517 45.0706 9.59167 45.0087 9.60821L45.1243 10.0407C45.1239 10.0408 45.1234 10.0409 45.1229 10.0411ZM45.2103 9.5545C49.233 8.48562 53.3289 7.57142 57.4705 6.7837C57.9223 6.67459 58.3738 6.56501 58.8248 6.45449L45.2103 9.5545ZM60.8141 6.17629C64.0487 5.51351 67.309 4.9309 70.5896 4.42649L60.8141 6.17629ZM124.949 3.84796C123.325 3.76649 121.697 3.68483 120.062 3.58085L110.21 3.43272C110.209 3.43271 110.208 3.43271 110.207 3.4327C107.401 3.41509 104.604 3.501 101.795 3.58727C100.148 3.63782 98.4982 3.6885 96.8398 3.71854C95.6345 3.80057 94.43 3.87817 93.2266 3.9557C88.4023 4.26649 83.5954 4.57617 78.826 5.1657L78.8191 5.16646C59.2436 7.30936 39.4558 11.1244 22.8341 19.8733C15.9387 23.6253 9.34991 28.2668 5.93021 34.43C2.7843 40.1715 3.38626 47.2335 7.46474 52.7183C10.9652 57.3965 16.8465 60.7131 23.0405 62.9032C35.3204 67.1407 48.545 68.9347 61.6764 70.5947L61.6807 70.5953C65.9544 71.1729 70.2494 71.5005 74.561 71.8293C76.9477 72.0113 79.3395 72.1937 81.7355 72.4192C84.1859 72.5135 86.6312 72.6296 89.0738 72.7455C94.6631 73.0107 100.238 73.2753 105.827 73.2779L105.833 73.278C109.633 73.3273 113.433 73.3737 117.233 73.4172C120.063 73.3537 122.896 73.2866 125.73 73.2195C128.852 73.1456 131.975 73.0717 135.093 73.0026C137.531 72.8057 139.968 72.64 142.4 72.4745C147.261 72.1439 152.107 71.8142 156.923 71.2392L156.963 71.2344L156.963 71.2344C165.64 70.1306 177.303 68.3905 188.206 65.5274C199.151 62.6534 209.231 58.672 214.797 53.1435C217.755 50.1477 219.48 46.5486 218.557 42.7937C218.117 41.2769 217.174 39.8814 216.166 38.4415C215.399 37.4062 214.55 36.4108 213.625 35.4616C210.585 32.3919 207.321 29.4709 203.638 26.9355C191.02 18.4702 175.76 13.0066 160.235 9.08855C151.463 7.0043 142.408 5.09002 133.284 4.37711L133.278 4.37658C130.505 4.12667 127.732 3.9876 124.949 3.84796Z" fill="#FF9067" stroke="#FF9067"/>
</svg>
