<svg width="169" height="48" viewBox="0 0 169 48" fill="none" xmlns="http://www.w3.org/2000/svg">
<path d="M53.1867 2.32392C72.1467 0.208251 91.7221 0.580981 110.787 3.42037C120.406 4.49253 129.934 5.98501 139.442 7.47436C143.229 8.06756 147.013 8.66026 150.798 9.22572L150.658 10.2152C147.148 9.69855 143.641 9.16562 140.134 8.63266C136.12 8.02272 132.106 7.41274 128.087 6.82711C132.776 7.96575 137.431 9.29566 141.875 10.8533C150.931 14.0275 159.149 18.1598 165.004 23.5768L165.015 23.5867L165.025 23.5973C165.967 24.5767 166.994 25.657 167.545 26.8701L167.548 26.8774L167.551 26.8847C168.338 28.7724 168.039 30.7944 166.897 32.4956C165.243 34.9646 162.176 36.9769 158.366 38.6338C154.543 40.2968 149.905 41.6301 145.029 42.7032C135.275 44.8497 124.5 45.9695 117.236 46.5833L117.224 46.4487L117.226 46.5842C112.385 46.8777 107.524 47.1022 102.669 47.3182L102.66 47.3187L102.651 47.3187C100.909 47.3329 99.1653 47.3508 97.4209 47.3688C94.6545 47.3973 91.8865 47.4258 89.1199 47.4391L89.1199 47.4392L89.1093 47.439C81.249 47.3098 73.3853 47.1307 65.5208 46.6826C61.9339 46.5338 58.3511 46.2315 54.781 45.9303C53.0689 45.7858 51.3596 45.6416 49.6543 45.5147L49.6409 45.5137L49.6277 45.512C48.131 45.3198 46.6271 45.1382 45.1207 44.9562C41.6584 44.5381 38.1832 44.1183 34.752 43.5657L34.7462 43.5647C25.3701 41.9415 15.1579 40.1655 7.80165 35.4974C2.56365 32.1781 0.0189326 27.0331 1.65335 22.3297C2.7422 19.1616 5.64305 16.5183 9.03543 14.4387C16.0476 10.1019 25.0649 7.49686 34.1429 5.55828C36.807 4.90364 39.5624 4.40333 42.297 3.90681C42.9706 3.7845 43.643 3.66241 44.3124 3.53831L44.324 3.53616L44.3357 3.53456L53.1745 2.32545L53.1744 2.3253L53.1867 2.32392ZM153.75 17.87C144.177 12.6467 132.633 9.21077 120.894 6.70597C114.263 5.3691 107.42 4.13278 100.536 3.62212L100.531 3.62172C98.438 3.4464 96.3469 3.33814 94.2468 3.2294C93.0214 3.16595 91.7929 3.10235 90.5591 3.02516L83.1283 2.84953C83.1277 2.84952 83.1271 2.84951 83.1266 2.8495C81.0104 2.81434 78.9023 2.84184 76.785 2.86946C75.544 2.88565 74.2999 2.90188 73.049 2.90556C72.1406 2.94463 71.2329 2.98103 70.3261 3.01739C66.6904 3.16318 63.0687 3.30841 59.4775 3.62316L59.4719 3.62358C44.7253 4.74843 29.8401 6.88236 17.3859 12.0228C12.2082 14.2346 7.31762 16.9708 4.82143 20.6172C2.56805 23.9524 3.03986 28.0991 6.10562 31.3941C8.75461 34.2236 13.192 36.2761 17.8846 37.6557C27.1752 40.3243 37.1598 41.5244 47.0767 42.643L47.0801 42.6434C50.3071 43.03 53.5475 43.2655 56.8012 43.5019C58.6025 43.6329 60.4079 43.7641 62.2174 43.9214C64.0663 43.9999 65.9114 44.0914 67.7543 44.1828C71.9713 44.392 76.1769 44.6007 80.3909 44.6511L80.3959 44.6512C83.2619 44.7142 86.1279 44.7755 88.9941 44.835C91.1275 44.8213 93.2638 44.8055 95.4002 44.7897C97.7541 44.7722 100.108 44.7548 102.459 44.7403C104.296 44.6425 106.133 44.5636 107.966 44.4848C111.628 44.3273 115.279 44.1704 118.906 43.8648L118.938 43.8621L118.938 43.8621C125.473 43.2704 134.252 42.3202 142.448 40.6849C150.686 39.0413 158.234 36.7236 162.36 33.4509C164.56 31.6706 165.721 29.6052 165.049 27.4865C164.721 26.6139 164.029 25.7922 163.254 24.9078C162.673 24.2818 162.031 23.6779 161.331 23.1003C159.019 21.2216 156.54 19.4313 153.75 17.87Z" fill="#FFE34F" stroke="#FFE34F"/>
</svg>
