<svg width="151" height="50" viewBox="0 0 151 50" fill="none" xmlns="http://www.w3.org/2000/svg">
<path d="M99.4655 2.74521C82.4085 -0.0408172 64.8715 -0.237181 47.8636 2.16773L47.8565 2.16873L47.8494 2.16994L39.9237 3.5237L39.9102 3.526L39.8969 3.52902C39.2974 3.66539 38.6948 3.79974 38.0909 3.93441C35.638 4.4814 33.1621 5.0335 30.7673 5.74633C22.6163 7.86758 14.5071 10.6883 8.17946 15.3057C5.11218 17.5247 2.49921 20.3205 1.50184 23.6265C0.0152028 28.5017 2.202 33.8457 6.89047 37.2903C13.4537 42.119 22.6065 43.881 30.9841 45.4872L30.9908 45.4885C34.0611 46.0337 37.1738 46.4394 40.2717 46.8432C41.6182 47.0187 42.962 47.1938 44.2983 47.3799L44.3138 47.3821L44.3294 47.3832C45.8524 47.499 47.3801 47.633 48.9112 47.7672C52.1068 48.0474 55.3171 48.3289 58.5303 48.4493M99.4655 2.74521L58.5534 47.9498M99.4655 2.74521C108.072 3.77304 116.594 5.24222 125.095 6.70772C128.481 7.29129 131.862 7.87427 135.245 8.42857L135.084 9.41562C131.944 8.90916 128.808 8.38569 125.672 7.86224C121.957 7.24229 118.243 6.62238 114.523 6.03084L99.4655 2.74521ZM58.5303 48.4493C58.5318 48.4494 58.5333 48.4494 58.5348 48.4495L58.5534 47.9498M58.5303 48.4493C58.5288 48.4492 58.5273 48.4492 58.5258 48.4491L58.5534 47.9498M58.5303 48.4493C65.5712 48.8408 72.6134 48.9504 79.6509 49.0079L79.6633 49.008L79.6633 49.0078C82.1412 48.9665 84.6211 48.9092 87.099 48.8519C88.661 48.8158 90.2223 48.7797 91.7818 48.7477L91.7924 48.7475L91.803 48.7468C96.1517 48.4725 100.508 48.1892 104.847 47.8337L104.844 47.6936L104.81 47.3875L104.806 47.3451L104.786 47.835L104.785 47.835L104.768 47.3386C100.446 47.6921 96.1071 47.9743 91.7714 48.2478C90.2091 48.2799 88.6468 48.316 87.0845 48.3521C84.6082 48.4093 82.1318 48.4666 79.6549 48.5079C72.6174 48.4504 65.5835 48.3408 58.5534 47.9498M30.7364 6.1864L30.7572 6.26571C27.1915 7.19715 23.6469 8.26137 20.2654 9.54876C23.6299 8.21317 27.1381 7.10833 30.7364 6.1864ZM30.7364 6.1864C30.738 6.18598 30.7396 6.18556 30.7412 6.18515C30.7422 6.1849 30.7432 6.18465 30.7442 6.1844L30.7678 5.77876C30.7248 5.7906 30.6818 5.80246 30.6388 5.81434L30.7364 6.1864ZM30.884 6.74937L30.8632 6.67004C27.2796 7.58808 23.7888 8.68764 20.4432 10.0162C23.7996 8.73835 27.3257 7.67892 30.884 6.74937ZM30.884 6.74937C30.8842 6.74934 30.8843 6.7493 30.8845 6.74926C30.8884 6.74824 30.8924 6.74721 30.8963 6.74618L30.9052 6.77827C32.5662 6.31953 34.2421 5.89349 35.9309 5.49955C41.6766 4.30751 47.5906 3.50874 53.4691 2.91977C55.1281 2.73156 56.7943 2.59024 58.4641 2.47172L58.478 2.71581L58.4831 2.71552C56.8221 2.84412 55.1581 2.9862 53.4948 3.14533C53.4938 3.14542 53.4928 3.14551 53.4918 3.14561C45.824 3.87925 38.1713 4.97506 30.8925 6.78158L30.884 6.74937ZM73.5632 2.15743C73.5594 2.15735 73.5556 2.15728 73.5518 2.1572L73.5576 1.87072C72.0379 1.87701 70.5174 1.91699 68.9965 1.95698C67.8836 1.98624 66.7705 2.0155 65.6573 2.03158C65.3767 2.0488 65.096 2.06569 64.8154 2.08236L64.8309 2.35546L64.8277 2.35564C65.1057 2.34357 65.3837 2.33267 65.6615 2.32277L65.6646 2.53154C65.6685 2.53148 65.6724 2.53142 65.6763 2.53137C65.6802 2.53113 65.6841 2.53089 65.688 2.53065L65.6752 2.32228C67.2197 2.26742 68.7616 2.2432 70.3105 2.21888C71.3903 2.20193 72.4734 2.18492 73.5632 2.15743ZM73.5632 2.15743C73.567 2.15734 73.5708 2.15724 73.5746 2.15714L73.5673 1.87068C73.9453 1.86915 74.3233 1.86971 74.7012 1.87288L79.0171 1.94443C79.7984 1.98442 80.5793 2.02965 81.3596 2.08006L81.3456 2.3064M73.5632 2.15743C73.9411 2.16505 74.3188 2.17213 74.6962 2.17888L74.6931 2.37282L74.6951 2.37285C74.6958 2.37286 74.6965 2.37286 74.6972 2.37287L74.6987 2.17893C75.2886 2.18948 75.8779 2.19923 76.4668 2.20898C78.0941 2.23591 79.7188 2.2628 81.3456 2.3064M81.3456 2.3064C81.3505 2.30653 81.3554 2.30666 81.3603 2.3068M81.3456 2.3064L81.3347 2.48241C81.3385 2.48265 81.3423 2.48288 81.3461 2.48312L81.3574 2.48331L81.3603 2.3068M81.3603 2.3068L81.364 2.08034C81.427 2.08441 81.4899 2.08851 81.5529 2.09265L81.541 2.31154C81.5432 2.31166 81.5455 2.31178 81.5477 2.3119M81.3603 2.3068C81.4228 2.30847 81.4852 2.31018 81.5477 2.3119M81.5477 2.3119C81.5499 2.31197 81.5521 2.31203 81.5544 2.31209L81.5604 2.09314C83.9735 2.25181 86.3809 2.46007 88.7782 2.71638L88.8126 2.39405C88.8154 2.39425 88.8183 2.39445 88.8212 2.39465C88.8238 2.39483 88.8265 2.39502 88.8291 2.3952L88.8026 2.71838C86.3864 2.57927 83.9681 2.44378 81.5477 2.3119ZM108.456 6.03418C108.454 6.03392 108.453 6.03367 108.452 6.03342L108.562 5.57602C106.273 5.05127 103.996 4.58062 101.756 4.15759L101.763 4.11283C101.763 4.11291 101.764 4.11299 101.764 4.11307C101.773 4.11468 101.781 4.11629 101.789 4.1179L108.456 6.03418ZM108.456 6.03418C108.457 6.03442 108.458 6.03466 108.459 6.0349L108.562 5.57611M58.4694 2.47134L58.4883 2.71512L64.8243 2.35579L64.8124 2.08254C64.2801 2.11416 63.7477 2.145 63.2154 2.17584C61.6323 2.26754 60.0492 2.35925 58.4694 2.47134Z" fill="#FF9067" stroke="#FF9067"/>
</svg>
