<svg width="41" height="41" viewBox="0 0 41 41" fill="none" xmlns="http://www.w3.org/2000/svg">
<g clip-path="url(#clip0_41_361)">
<path d="M37.7874 17.8101H38.9592C39.6064 17.8101 40.1311 17.2854 40.1311 16.6382V10.7788C40.1311 10.1225 39.6156 9.60693 38.9592 9.60693H33.0217C32.3745 9.60693 31.8499 10.1316 31.8499 10.7788V11.9507C31.8499 13.245 30.8004 14.2944 29.5061 14.2944C28.2118 14.2944 27.1624 13.245 27.1624 11.9507V10.7788C27.1624 10.1316 26.6377 9.60693 25.9905 9.60693H20.1311L17.7874 20.2868L20.1311 30.7007H27.1624V33.0444C27.1624 34.3387 28.2118 35.3882 29.5061 35.3882C30.8004 35.3882 31.8499 34.3387 31.8499 33.0444V30.7007H38.9592C39.6156 30.7007 40.1311 30.185 40.1311 29.5288V23.6694C40.1311 23.0222 39.6064 22.4976 38.9592 22.4976H37.7874C36.4931 22.4976 35.4436 21.4481 35.4436 20.1538C35.4436 18.8594 36.4931 17.8101 37.7874 17.8101Z" fill="#A783FA"/>
<path d="M22.4749 17.8101H20.1311V9.60693H13.0999V7.26318C13.0999 5.96873 12.0504 4.91943 10.7561 4.91943C9.46181 4.91943 8.41235 5.96873 8.41235 7.26318V9.60693H1.30298C0.64665 9.60693 0.131104 10.1225 0.131104 10.7788V16.6382C0.131104 17.2854 0.655791 17.8101 1.30298 17.8101H2.47485C3.76915 17.8101 4.8186 18.8594 4.8186 20.1538C4.8186 21.4481 3.76915 22.4976 2.47485 22.4976H1.30298C0.655791 22.4976 0.131104 23.0222 0.131104 23.6694V29.5288C0.131104 30.185 0.64665 30.7007 1.30298 30.7007H7.24048C7.88767 30.7007 8.41235 30.176 8.41235 29.5288V28.3569C8.41235 27.0625 9.46181 26.0132 10.7561 26.0132C12.0504 26.0132 13.0999 27.0625 13.0999 28.3569V29.5288C13.0999 30.176 13.6245 30.7007 14.2717 30.7007H20.1311V22.4976H22.4749C23.764 22.4976 24.8186 21.4429 24.8186 20.1538C24.8186 18.8647 23.764 17.8101 22.4749 17.8101Z" fill="#C9B2FF"/>
</g>
<defs>
<clipPath id="clip0_41_361">
<rect width="40" height="40" fill="white" transform="translate(0.131104 0.153809)"/>
</clipPath>
</defs>
</svg>
