<svg width="41" height="41" viewBox="0 0 41 41" fill="none" xmlns="http://www.w3.org/2000/svg">
<g clip-path="url(#clip0_46_26)">
<path d="M28.563 25.4796L32.5295 23.7476C32.2952 22.9272 31.9905 22.1538 31.592 21.4038L26.5596 17.6376L9.34993 20.2319C8.01392 22.2476 7.24048 24.6616 7.24048 27.2632C7.24048 29.8647 8.01392 32.2788 9.34993 34.2944L22.4749 36.6382L24.7191 32.7881L27.1624 34.2944L32.1311 31.9507C32.717 30.4976 33.0217 28.9272 33.0217 27.2632L28.563 25.4796ZM20.1311 16.7163C20.7788 16.7163 21.303 16.1922 21.303 15.5444V8.35693C21.303 7.7092 20.7788 7.18506 20.1311 7.18506C19.4834 7.18506 18.9592 7.7092 18.9592 8.35693V15.5444C18.9592 16.1922 19.4834 16.7163 20.1311 16.7163Z" fill="white"/>
<path d="M24.8186 29.6069C24.8186 28.3179 25.8733 27.2632 27.1623 27.2632H33.0217C33.0217 26.0444 32.8576 24.8725 32.5294 23.7476H27.1623C26.506 23.7476 25.9905 23.2319 25.9905 22.5757C25.9905 21.9194 26.506 21.4038 27.1623 21.4038H31.592C29.4591 17.2319 25.1233 14.3726 20.1311 14.3726C15.6076 14.3726 11.6467 16.7163 9.34991 20.2319H20.1311C21.4201 20.2319 22.4748 21.2866 22.4748 22.5757C22.4748 23.8647 21.4201 24.9194 20.1311 24.9194H15.4436C14.1545 24.9194 13.0998 25.9741 13.0998 27.2632C13.0998 28.5467 14.1323 29.6069 15.4436 29.6069C16.7326 29.6069 17.7873 30.6616 17.7873 31.9507C17.7873 33.2397 16.7326 34.2944 15.4436 34.2944H9.34991C11.6467 37.8101 15.6076 40.1538 20.1311 40.1538C25.592 40.1538 30.2561 36.7554 32.1311 31.9507H27.1623C25.8733 31.9507 24.8186 30.896 24.8186 29.6069ZM18.9592 9.52881H20.1311H21.303C25.1802 9.52881 28.3342 6.37482 28.3342 2.49756V1.32568C28.3342 0.677949 27.8101 0.153809 27.1623 0.153809H25.9905C23.5444 0.153809 21.3911 1.41225 20.1311 3.31256C18.8711 1.41225 16.7177 0.153809 14.2717 0.153809H13.0998C12.4521 0.153809 11.928 0.677949 11.928 1.32568V2.49756C11.928 6.37482 15.0819 9.52881 18.9592 9.52881Z" fill="#2AD884"/>
</g>
<defs>
<clipPath id="clip0_46_26">
<rect width="40" height="40" fill="white" transform="translate(0.131104 0.153809)"/>
</clipPath>
</defs>
</svg>
