<svg width="41" height="41" viewBox="0 0 41 41" fill="none" xmlns="http://www.w3.org/2000/svg">
<g clip-path="url(#clip0_41_377)">
<path d="M32.8224 10.7613C31.9617 5.64995 27.9766 1.50002 22.9042 0.432201C19.0106 -0.368955 15.0369 0.576431 12.0063 3.04397C8.97792 5.50689 7.24286 9.15101 7.24286 13.0423C7.24286 17.024 9.04659 20.7265 12.1986 23.2055C13.4987 24.208 14.2747 25.8675 14.2747 27.645V34.294C14.2747 37.5739 16.948 40.1538 20.1345 40.1538C23.3665 40.1538 25.9943 37.5249 25.9943 34.294V27.645C25.9943 25.879 26.8252 24.1955 28.2765 23.0258C28.2787 23.0246 28.2811 23.0223 28.2856 23.0201C31.932 20.0306 33.6281 15.4457 32.8224 10.7613Z" fill="#FF9067"/>
<path d="M13.1027 30.6217H27.1663C27.8141 30.6217 28.3383 30.0975 28.3383 29.4497C28.3383 28.8019 27.8141 28.2778 27.1663 28.2778H21.3065V21.0301C22.6677 20.5447 23.6504 19.256 23.6504 17.7301C23.6504 17.0823 23.1262 16.5581 22.4784 16.5581C21.8306 16.5581 21.3065 17.0823 21.3065 17.7301C21.3065 18.3767 20.78 18.902 20.1345 18.902C19.489 18.902 18.9625 18.3767 18.9625 17.7301C18.9625 17.0823 18.4383 16.5581 17.7906 16.5581C17.1428 16.5581 16.6186 17.0823 16.6186 17.7301C16.6186 19.256 17.6013 20.5447 18.9625 21.0301V28.2778H13.1027C12.4549 28.2778 11.9307 28.8019 11.9307 29.4497C11.9307 30.0975 12.4549 30.6217 13.1027 30.6217ZM27.1663 33.1219H13.1027C12.4549 33.1219 11.9307 33.6461 11.9307 34.2939C11.9307 34.9416 12.4549 35.4658 13.1027 35.4658H27.1663C27.8141 35.4658 28.3383 34.9416 28.3383 34.2939C28.3383 33.6461 27.8141 33.1219 27.1663 33.1219Z" fill="#C06442"/>
</g>
<defs>
<clipPath id="clip0_41_377">
<rect width="40" height="40" fill="white" transform="translate(0.131104 0.153809)"/>
</clipPath>
</defs>
</svg>
