<svg width="41" height="41" viewBox="0 0 41 41" fill="none" xmlns="http://www.w3.org/2000/svg">
<g clip-path="url(#clip0_46_58)">
<path d="M21.303 14.2944C17.4257 14.2944 14.2717 17.4484 14.2717 21.3257V23.6694C14.2717 27.5467 17.4257 30.7007 21.303 30.7007C25.1802 30.7007 28.3342 27.5467 28.3342 23.6694V21.3257C28.3342 17.4484 25.1802 14.2944 21.303 14.2944Z" fill="#26A2F5"/>
<path d="M16.6292 7.09691L16.2195 9.55965C16.1462 9.99684 16.3271 10.4386 16.6865 10.6995C17.0458 10.9604 17.5242 10.9947 17.9155 10.7911L20.1311 9.64207L22.3466 10.7911C22.7367 10.9967 23.217 10.9615 23.5757 10.6995C23.9351 10.4386 24.1158 9.99684 24.0426 9.55965L23.633 7.09691L25.4114 5.34598C25.7273 5.03473 25.8417 4.57004 25.7044 4.14895C25.567 3.72551 25.2031 3.41879 24.7637 3.35246L22.2963 2.97941L21.1794 0.747773C20.7811 -0.0441797 19.4811 -0.0441797 19.0828 0.747773L17.9658 2.97934L15.4985 3.35238C15.0591 3.41879 14.6951 3.72543 14.5578 4.14887C14.4205 4.57004 14.5349 5.03465 14.8508 5.3459L16.6292 7.09691ZM11.857 15.5189C12.2164 15.258 12.3972 14.8163 12.324 14.3791L11.9143 11.9164L13.6927 10.1654C14.0086 9.85418 14.123 9.38949 13.9857 8.9684C13.8483 8.54496 13.4844 8.23824 13.045 8.17192L10.5776 7.79887L9.46069 5.56731C9.06241 4.77535 7.76241 4.77535 7.36413 5.56731L6.2471 7.79871L3.77976 8.17176C3.3403 8.23816 2.9764 8.54481 2.83905 8.96824C2.70171 9.38941 2.81616 9.85402 3.13202 10.1653L4.91046 11.9162L4.50077 14.3789C4.42749 14.8161 4.60835 15.2579 4.96772 15.5188C5.3271 15.7797 5.80311 15.814 6.19679 15.6104L8.41233 14.4615L10.6279 15.6105C11.018 15.8161 11.4983 15.7809 11.857 15.5189ZM37.4231 8.96832C37.2858 8.54488 36.9219 8.23816 36.4824 8.17184L34.0151 7.79879L32.8981 5.56723C32.4998 4.77527 31.1998 4.77527 30.8016 5.56723L29.6846 7.79879L27.2173 8.17184C26.7778 8.23824 26.4139 8.54488 26.2766 8.96832C26.1392 9.38949 26.2537 9.8541 26.5695 10.1654L28.348 11.9163L27.9383 14.379C27.865 14.8162 28.0458 15.2579 28.4052 15.5189C28.7623 15.7798 29.2406 15.8141 29.6343 15.6104L31.8498 14.4615L34.0654 15.6105C34.4555 15.8161 34.9358 15.781 35.2944 15.5189C35.6538 15.258 35.8346 14.8163 35.7614 14.3791L35.3517 11.9164L37.1301 10.1654C37.446 9.8541 37.5605 9.38949 37.4231 8.96832ZM27.1623 30.7007H15.4436C12.2118 30.7007 9.58421 33.3282 9.58421 36.56V38.9819C9.58421 39.6297 10.1083 40.1538 10.7561 40.1538H31.8498C32.4976 40.1538 33.0217 39.6297 33.0217 38.9819V36.56C33.0217 33.3282 30.3941 30.7007 27.1623 30.7007Z" fill="#87CFFF"/>
</g>
<defs>
<clipPath id="clip0_46_58">
<rect width="40" height="40" fill="white" transform="translate(0.131104 0.153809)"/>
</clipPath>
</defs>
</svg>
