<svg width="88" height="9" viewBox="0 0 88 9" fill="none" xmlns="http://www.w3.org/2000/svg">
<path d="M3.29938 7.60149C3.38879 7.56312 3.42317 7.55249 3.42666 7.55061L3.50635 7.54323L3.59735 7.5101C4.0244 7.35463 4.42787 7.24853 4.86656 7.13317C5.08136 7.07668 5.3046 7.01798 5.54319 6.95017L5.5432 6.9502L5.54972 6.94828C7.38067 6.40993 9.15523 6.12272 10.982 5.82705C11.8992 5.6786 12.8296 5.52802 13.7869 5.34245C32.9553 3.3405 51.6476 5.03714 70.4113 6.74027C75.3906 7.19222 80.3749 7.64463 85.3744 8.02851C85.8606 8.07402 86.1789 7.75413 86.315 7.58001C86.4746 7.3759 86.5842 7.12889 86.656 6.90199C86.7301 6.66816 86.7787 6.40939 86.7896 6.15543C86.8001 5.91093 86.778 5.61591 86.6636 5.34178L86.5516 5.07343L86.288 4.95072C85.2565 4.47059 84.1529 4.37294 83.1483 4.33265C82.9131 4.32322 82.6851 4.31677 82.463 4.31049C81.6934 4.28872 80.9955 4.26898 80.317 4.13411L80.2717 4.12511L80.2257 4.12173C75.6004 3.78222 70.973 3.37021 66.3376 2.95749C48.2243 1.34472 29.988 -0.278993 11.2696 2.36909L11.2696 2.36896L11.2557 2.37119C8.79759 2.76609 6.30753 3.23248 3.78438 3.99906L3.68868 4.02813L3.60519 4.08049C3.60515 4.08041 3.58707 4.09023 3.53611 4.10531C3.47656 4.12293 3.40373 4.13899 3.29641 4.16106C3.28244 4.16394 3.26774 4.16692 3.25238 4.17004C3.06261 4.20858 2.77198 4.2676 2.49902 4.39138C2.17592 4.5379 1.85132 4.78345 1.63544 5.20083C1.42922 5.59952 1.35962 6.08333 1.39267 6.64511L1.39562 6.69515L1.4052 6.74436C1.46185 7.0354 1.58737 7.38883 1.90654 7.6169C2.2488 7.86147 2.61442 7.82373 2.82176 7.77508C2.99431 7.73458 3.16907 7.6583 3.26633 7.61585C3.27864 7.61047 3.28971 7.60564 3.29938 7.60149Z" fill="#FFE34F" stroke="#FFE34F" stroke-width="1.5"/>
</svg>
